<svg width="1728" height="1399" xmlns="http://www.w3.org/2000/svg" xmlns:xlink="http://www.w3.org/1999/xlink" xml:space="preserve" overflow="hidden"><defs><clipPath id="clip0"><rect x="1096" y="1066" width="1728" height="1399"/></clipPath><clipPath id="clip1"><rect x="1402" y="1213" width="1087" height="1088"/></clipPath><clipPath id="clip2"><rect x="1402" y="1213" width="1087" height="1088"/></clipPath><clipPath id="clip3"><rect x="1402" y="1213" width="1087" height="1088"/></clipPath><radialGradient cx="-17.7572" cy="480.901" r="242.643" gradientUnits="userSpaceOnUse" spreadMethod="pad" id="fill4" gradientTransform="scale(2.23523 2.23523)"><stop offset="0" stop-color="#D8A166"/><stop offset="1" stop-color="#9D754A"/></radialGradient><radialGradient cx="106.059" cy="669.68" r="48.2511" gradientUnits="userSpaceOnUse" spreadMethod="pad" id="fill5" gradientTransform="matrix(-4.04417 -0.780141 0.937604 -4.86044 7.72691 4370.85)"><stop offset="0" stop-color="#CE935B"/><stop offset="1" stop-color="#AB7A4B"/></radialGradient><radialGradient cx="116.433" cy="664.652" r="109.455" gradientUnits="userSpaceOnUse" spreadMethod="pad" id="fill6" gradientTransform="matrix(-0.112687 2.82992 -2.55221 -0.101629 1975.74 751.726)"><stop offset="0" stop-color="#CE935B"/><stop offset="1" stop-color="#AB7A4B"/></radialGradient></defs><g clip-path="url(#clip0)" transform="translate(-1096 -1066)"><g clip-path="url(#clip1)"><g clip-path="url(#clip2)"><g clip-path="url(#clip3)"><path d="M788.716 1236.25C788.716 1535.17 546.392 1777.5 247.471 1777.5-51.4493 1777.5-293.774 1535.17-293.774 1236.25-293.774 937.331-51.4493 695.008 247.471 695.008 546.392 695.008 788.716 937.331 788.716 1236.25Z" fill="url(#fill4)" transform="matrix(1 0 0 1.00092 1697.53 519.112)"/><path d="M-44.5377 424.461C-100.021 424.461-153.536 432.844-203.932 448.353-198.042 451.995-191.859 455.294-186.26 459.027-174.279 467.015-134.217 478.094-120.382 482.706-65.2854 498.346-41.5726 472.651 10.3844 496.278 21.107 507.001 70.1593 509.73 76.5453 522.502 78.9105 532.501 10.0455 544.219-11.3866 545.333-15.3083 546.64 4.08667 565.086 5.71916 565.902 28.7351 577.41 60.4416 572.715 84.5326 580.745 123.837 593.847 175.295 603.508 207.948 625.277 221.603 634.38 217.716 662.469 228.518 673.272 238.129 682.885 258.53 686.759 263.93 702.96 276.551 748.291 290.34 793.08 326.769 827.506 354.478 840.641 389.989 898.612 423.819 841.219 451.365 786.128 400.343 722.236 379.289 680.128 369.368 660.288 365.846 636.251 364.799 611.565 342.882 586.255 318.621 563.027 292.417 542.152 282.224 544.607 273.744 545.651 267.819 544.484 227.996 536.64 152.296 484.104 117.118 470.407 98.9677 463.34 90.4188 451.762 84.0379 439.871 42.8114 429.823-0.217548 424.461-44.5377 424.461Z" fill="#7A5A43" transform="matrix(1 0 0 1.00092 1989.55 789.895)"/><path d="M482.842 894.161C445.472 919.243 474.992 1025.91 453.084 1044.86 426.279 1031.46 440.557 973.006 419.154 1015.81 415.063 1023.99 414.913 1039.35 414.913 1047.48 414.913 1079.76 375.248 1079.74 366.565 1105.79 364.441 1112.16 362.478 1156.34 356.104 1153.15 340.424 1145.31 361.122 1079.74 361.122 1064.02 360.693 1048.49 336.101 1122.07 322.317 1116.18 308.643 1110.34 313.902 1080.32 306.554 1059.92 294.938 1027.66 276.85 1128.58 268.807 1134.28 257.914 1145.23 226.715 1112.03 216.855 1138.1 203.518 1173.35 221.566 1171.69 238.201 1212.31 230.131 1220.38 142.995 1201.79 138.041 1191.89 133.846 1183.5 140.095 1168.57 136.415 1161.21 131.717 1151.81 98.2159 1167.69 94.4286 1156.33 86.9771 1133.98 134.978 1142.89 98.1041 1118.3 84.5211 1109.25 69.5037 1121.94 57.107 1117.81 38.2376 1110.49 11.7291 1089.11 29.7519 1136.96 57.3258 1148.6 81.4803 1117.08 74.0714 1165.73 70.4362 1208.38 1.813 1173.49-20.7169 1181-26.8903 1183.06-34.929 1193.09-28.4216 1193.09-12.5728 1193.09 94.0045 1212.07 94.0045 1221.79 117.22 1274.26 196.984 1219.01 224.614 1271.17 239.239 1285.79 212.814 1356.93 222.015 1361.53 226.982 1364.01 326.119 1354.4 330.304 1350.22 336.999 1343.53 345.107 1337.49 353.983 1331.91 442.588 1235.54 496.696 1106.93 496.696 965.695 496.696 941.877 495.085 918.441 492.102 895.434 488.55 895.123 485.292 894.774 482.842 894.161Z" fill="#7A5A43" transform="matrix(1 0 0 1.00092 1989.55 789.895)"/><path d="M229.065 724.686C221.934 710.161 221.225 746.964 213.642 747.534 201.908 747.534 184.329 743.896 177.654 757.245 166.043 780.468 205.693 770.333 197.075 778.951 185.371 788.755 155.242 798.438 166.23 817.795 162.359 831.82 203.393 833.898 198.217 847.497 145.232 896.463 209.237 865.967 235.919 864.063 264.417 893.535 217.805 895.856 249.057 914.902 336.369 874.672 257.208 782.011 229.065 724.686Z" fill="#7A5A43" transform="matrix(1 0 0 1.00092 1989.55 789.895)"/><path d="M72.9394 1282.69C2.69339 1283.11-67.1803 1316.22-120.101 1344.32-139.313 1388.59 48.9383 1429.11-85.8186 1434.59-210.171 1427.06-320.748 1380.84-435.355 1340.15-341.301 1438.3-210.646 1501.06-65.32 1506.55-64.5272 1506.18-63.7777 1505.81-62.9874 1505.41-54.3257 1501.08-48.0697 1492.43-40.0855 1487.11-30.8287 1480.94-18.2708 1480.6-9.26698 1473.4-1.79415 1467.42 81.5308 1489.13 125.529 1422.01 192.505 1396.59 229.949 1440.49 200.975 1346.58 208.456 1251.75 162.357 1267.78 131.546 1260.03 114.806 1255.82 89.8604 1282.58 72.9394 1282.69Z" fill="#7A5A43" transform="matrix(1 0 0 1.00092 1989.55 789.895)"/><path d="M196.718 884.502C214.542 952.232 256.877 1114.26 186.436 1195.25 176.255 1197.79 176.378 1174.74 167.014 1172.4 147.3 1167.47 121.016 1242.93 111.034 1232.95 94.7797 1161.73 58.0133 1068.83 76.7612 999.888 102.797 937.858 165.832 878.617 196.718 884.502Z" fill="url(#fill5)" transform="matrix(1 0 0 1.00092 1402 617.769)"/><path d="M273.26 1288.93C275.509 1282.18 275.545 1252.83 275.545 1243.23 294.97 1211.62 279.891 1192.45 288.113 1163.26 363.376 1066.76 305.912 1033.71 324.671 967.901 333.538 941.3 377.222 1069.54 377.222 958.761 362.085 912.904 466.298 801.859 500.606 828.522 527.892 880.508 567.987 928.378 569.152 974.755 580.31 1023.26 493.989 1056.67 476.751 1094.26 440.924 1173.43 482.831 1259.98 485.755 1299.21 433.662 1265.96 363.92 1217.4 330.382 1288.93 321.042 1307.61 303.234 1322.66 293.825 1341.48 286.329 1356.47 291.597 1368.84 280.116 1380.32 159.604 1400.92 256.379 1318.58 273.26 1288.93Z" fill="url(#fill6)" transform="matrix(1 8.68959e-18 0 1.00092 1402 617.769)"/><path d="M318.612 1279.55C334.59 1264.8 311.805 1243.59 299 1262.78 291.648 1273.79 302.833 1294.13 318.612 1279.55Z" fill="#896559" transform="matrix(1 0 0 1.00092 1402 617.769)"/><path d="M409.136 1177.68C419.763 1164.65 400.06 1148.45 389.719 1162.32 381.807 1172.94 395.689 1194.16 409.136 1177.68Z" fill="#896559" transform="matrix(1 0 0 1.00092 1402 617.769)"/><path d="M264.989 1363.74C277.979 1345.96 255.45 1331.3 244.069 1350.22 237.535 1361.08 253.143 1379.96 264.989 1363.74Z" fill="#896559" transform="matrix(1 0 0 1.00092 1402 617.769)"/><path d="M150.299 1080.51C167.07 1094.54 184.387 1053.08 170.405 1048.36 148.556 1040.98 133.979 1066.86 150.299 1080.51Z" fill="#896559" transform="matrix(1 0 0 1.00092 1402 617.769)"/><path d="M540.587 597.238C517.599 597.238 494.962 598.696 472.729 601.478 468.733 606.272 473.823 613.069 475.486 616.393 476.498 618.419 480.716 618.76 482.907 619.857 486.1 621.452 489.395 625.68 492.592 627.278 503.998 632.981 524.388 634.35 537.123 630.105 551.755 625.228 522.676 613.408 525.177 608.406 525.645 607.468 528.895 607.841 530.267 607.841 541.414 607.841 556.597 605.127 567.446 607.841 571.932 608.962 579.857 608.673 583.987 610.738 586.814 612.151 581.318 615.083 582.856 618.159 586.45 625.346 598.407 627.342 606.253 625.582 611.918 628.414 662.717 626.477 658.277 617.594 656.594 614.229 649.453 612.9 646.261 611.303 641.55 608.947 636.497 606.753 631.134 604.8 601.681 599.838 571.45 597.238 540.587 597.238Z" fill="#F2F2F2" transform="matrix(1 0 0 1.00092 1402 617.769)"/></g></g></g><path d="M2237 2183C2237 2160.36 2255.36 2142 2278 2142 2300.64 2142 2319 2160.36 2319 2183 2319 2205.64 2300.64 2224 2278 2224 2255.36 2224 2237 2205.64 2237 2183Z" stroke="#000000" stroke-width="13.75" stroke-miterlimit="8" fill="#C00000" fill-rule="evenodd"/><text font-family="Consolas,Consolas_MSFontService,sans-serif" font-weight="400" font-size="83" transform="matrix(1 0 0 1 1899.94 1169)">0<tspan font-size="83" x="45.2604" y="0">°</tspan><tspan font-size="83" x="637.569" y="602">90</tspan><tspan font-size="83" x="728.09" y="602">°</tspan><tspan fill="#C00000" font-size="83" x="-754.277" y="602">270</tspan><tspan fill="#C00000" font-size="83" x="-618.496" y="602">°</tspan><tspan font-size="83" x="-45.2603" y="1225">180</tspan><tspan font-size="83" x="90.521" y="1225">°</tspan><tspan fill="#C00000" font-size="83" x="598.039" y="340">75</tspan><tspan fill="#C00000" font-size="83" x="688.56" y="340">°</tspan><tspan fill="#C00000" font-size="83" x="436.768" y="1119">145</tspan><tspan fill="#C00000" font-size="83" x="572.549" y="1119">°</tspan></text><path d="M0 0C102.133 0.941935 204.266 1.88387 293.769 8.47742 383.272 15.071 464.667 26.1387 537.018 39.5613 609.369 52.9839 669.869 70.8806 727.875 89.0129 785.88 107.145 842.014 130.458 885.051 148.355 928.087 166.252 961.768 184.619 986.092 196.394 1010.42 208.168 1020.71 213.584 1031 219" stroke="#000000" stroke-width="27.5" stroke-miterlimit="8" stroke-dasharray="82.5 27.5" fill="none" fill-rule="evenodd" transform="matrix(1 -1.22465e-16 -1.22465e-16 -1 1402 1748)"/><path d="M2386 1523C2386 1500.36 2404.36 1482 2427 1482 2449.64 1482 2468 1500.36 2468 1523 2468 1545.64 2449.64 1564 2427 1564 2404.36 1564 2386 1545.64 2386 1523Z" stroke="#000000" stroke-width="13.75" stroke-miterlimit="8" fill="#C00000" fill-rule="evenodd"/><path d="M1367 1743C1367 1720.36 1385.36 1702 1408 1702 1430.64 1702 1449 1720.36 1449 1743 1449 1765.64 1430.64 1784 1408 1784 1385.36 1784 1367 1765.64 1367 1743Z" stroke="#000000" stroke-width="13.75" stroke-miterlimit="8" fill="#C00000" fill-rule="evenodd"/></g></svg>