<svg width="1567" height="1397" xmlns="http://www.w3.org/2000/svg" xmlns:xlink="http://www.w3.org/1999/xlink" xml:space="preserve" overflow="hidden"><defs><clipPath id="clip0"><rect x="2707" y="216" width="1567" height="1397"/></clipPath><clipPath id="clip1"><rect x="2920" y="396" width="1088" height="1086"/></clipPath><clipPath id="clip2"><rect x="2920" y="396" width="1088" height="1086"/></clipPath><clipPath id="clip3"><rect x="2920" y="396" width="1088" height="1086"/></clipPath><radialGradient cx="-17.7572" cy="480.901" r="242.643" gradientUnits="userSpaceOnUse" spreadMethod="pad" id="fill4" gradientTransform="matrix(2.23523 0 0 2.23523 3216.53 -297.25)"><stop offset="0" stop-color="#D8A166"/><stop offset="1" stop-color="#9D754A"/></radialGradient><radialGradient cx="106.059" cy="669.68" r="48.2511" gradientUnits="userSpaceOnUse" spreadMethod="pad" id="fill5" gradientTransform="matrix(-4.04417 -0.780141 0.937605 -4.86044 2928.73 4172.16)"><stop offset="0" stop-color="#CE935B"/><stop offset="1" stop-color="#AB7A4B"/></radialGradient><radialGradient cx="116.433" cy="664.652" r="109.455" gradientUnits="userSpaceOnUse" spreadMethod="pad" id="fill6" gradientTransform="matrix(-0.112687 2.82992 -2.55221 -0.101629 4896.74 553.042)"><stop offset="0" stop-color="#CE935B"/><stop offset="1" stop-color="#AB7A4B"/></radialGradient></defs><g clip-path="url(#clip0)" transform="translate(-2707 -216)"><g clip-path="url(#clip1)"><g clip-path="url(#clip2)"><g clip-path="url(#clip3)"><path d="M4005.25 939.001C4005.25 1237.92 3762.92 1480.25 3464 1480.25 3165.08 1480.25 2922.76 1237.92 2922.76 939.001 2922.76 640.082 3165.08 397.759 3464 397.759 3762.92 397.759 4005.25 640.082 4005.25 939.001Z" fill="url(#fill4)"/><path d="M3464.01 397.746C3408.53 397.746 3355.01 406.129 3304.62 421.638 3310.51 425.279 3316.69 428.578 3322.29 432.311 3334.27 440.299 3374.33 451.378 3388.17 455.99 3443.26 471.63 3466.98 445.935 3518.93 469.562 3529.66 480.285 3578.71 483.014 3585.09 495.786 3587.46 505.785 3518.59 517.503 3497.16 518.617 3493.24 519.924 3512.64 538.37 3514.27 539.186 3537.28 550.694 3568.99 545.999 3593.08 554.029 3632.39 567.131 3683.84 576.792 3716.5 598.561 3730.15 607.665 3726.26 635.754 3737.07 646.556 3746.68 656.169 3767.08 660.043 3772.48 676.244 3785.1 721.575 3798.89 766.364 3835.32 800.79 3863.03 813.925 3898.54 871.896 3932.37 814.503 3959.91 759.412 3908.89 695.52 3887.84 653.412 3877.92 633.572 3874.39 609.535 3873.35 584.849 3851.43 559.539 3827.17 536.311 3800.97 515.436 3790.77 517.891 3782.29 518.935 3776.37 517.768 3736.54 509.925 3660.84 457.388 3625.67 443.691 3607.52 436.624 3598.97 425.046 3592.59 413.156 3551.36 403.107 3508.33 397.746 3464.01 397.746Z" fill="#7A5A43"/><path d="M3991.39 867.445C3954.02 892.527 3983.54 999.191 3961.63 1018.15 3934.83 1004.74 3949.11 946.291 3927.7 989.095 3923.61 997.278 3923.46 1012.64 3923.46 1020.76 3923.46 1053.04 3883.8 1053.03 3875.11 1079.08 3872.99 1085.45 3871.03 1129.62 3864.65 1126.44 3848.97 1118.6 3869.67 1053.03 3869.67 1037.3 3869.24 1021.77 3844.65 1095.36 3830.87 1089.47 3817.19 1083.62 3822.45 1053.61 3815.1 1033.2 3803.49 1000.95 3785.4 1101.86 3777.36 1107.56 3766.46 1118.51 3735.26 1085.31 3725.4 1111.38 3712.07 1146.64 3730.11 1144.97 3746.75 1185.6 3738.68 1193.67 3651.54 1175.08 3646.59 1165.17 3642.39 1156.78 3648.64 1141.85 3644.96 1134.49 3640.27 1125.1 3606.76 1140.98 3602.98 1129.62 3595.53 1107.26 3643.53 1116.17 3606.65 1091.59 3593.07 1082.53 3578.05 1095.22 3565.66 1091.09 3546.79 1083.78 3520.28 1062.39 3538.3 1110.25 3565.87 1121.89 3590.03 1090.37 3582.62 1139.02 3578.98 1181.67 3510.36 1146.78 3487.83 1154.29 3481.66 1156.34 3473.62 1166.37 3480.13 1166.37 3495.98 1166.37 3602.55 1185.35 3602.55 1195.07 3625.77 1247.55 3705.53 1192.3 3733.16 1244.45 3747.79 1259.08 3721.36 1330.21 3730.56 1334.81 3735.53 1337.3 3834.67 1327.69 3838.85 1323.5 3845.55 1316.81 3853.66 1310.78 3862.53 1305.2 3951.14 1208.82 4005.24 1080.22 4005.24 938.979 4005.24 915.161 4003.63 891.725 4000.65 868.718 3997.1 868.407 3993.84 868.059 3991.39 867.445Z" fill="#7A5A43"/><path d="M3737.61 697.97C3730.48 683.445 3729.77 720.248 3722.19 720.818 3710.46 720.818 3692.88 717.18 3686.2 730.529 3674.59 753.752 3714.24 743.617 3705.62 752.235 3693.92 762.039 3663.79 771.722 3674.78 791.079 3670.91 805.104 3711.94 807.182 3706.77 820.781 3653.78 869.747 3717.79 839.251 3744.47 837.347 3772.97 866.819 3726.35 869.14 3757.6 888.186 3844.92 847.956 3765.76 755.295 3737.61 697.97Z" fill="#7A5A43"/><path d="M3581.49 1255.97C3511.24 1256.4 3441.37 1289.51 3388.45 1317.61 3369.24 1361.88 3557.49 1402.39 3422.73 1407.87 3298.38 1400.34 3187.8 1354.12 3073.19 1313.44 3167.25 1411.58 3297.9 1474.34 3443.23 1479.83 3444.02 1479.47 3444.77 1479.09 3445.56 1478.7 3454.22 1474.37 3460.48 1465.71 3468.46 1460.39 3477.72 1454.22 3490.28 1453.88 3499.28 1446.68 3506.75 1440.7 3590.08 1462.42 3634.08 1395.29 3701.05 1369.88 3738.5 1413.77 3709.52 1319.87 3717 1225.03 3670.91 1241.07 3640.09 1233.31 3623.35 1229.1 3598.41 1255.87 3581.49 1255.97Z" fill="#7A5A43"/><path d="M3117.72 685.818C3135.54 753.548 3177.88 915.576 3107.44 996.561 3097.25 999.107 3097.38 976.053 3088.01 973.714 3068.3 968.785 3042.02 1044.24 3032.03 1034.26 3015.78 963.048 2979.01 870.146 2997.76 801.204 3023.8 739.174 3086.83 679.933 3117.72 685.818Z" fill="url(#fill5)"/><path d="M3194.26 1090.24C3196.51 1083.5 3196.55 1054.14 3196.55 1044.54 3215.97 1012.94 3200.89 993.77 3209.11 964.574 3284.38 868.073 3226.91 835.027 3245.67 769.217 3254.54 742.616 3298.22 870.858 3298.22 760.077 3283.08 714.22 3387.3 603.175 3421.61 629.838 3448.89 681.824 3488.99 729.694 3490.15 776.071 3501.31 824.579 3414.99 857.983 3397.75 895.571 3361.92 974.75 3403.83 1061.29 3406.75 1100.52 3354.66 1067.28 3284.92 1018.72 3251.38 1090.24 3242.04 1108.92 3224.23 1123.98 3214.83 1142.79 3207.33 1157.79 3212.6 1170.16 3201.12 1181.64 3080.6 1202.24 3177.38 1119.9 3194.26 1090.24Z" fill="url(#fill6)"/><path d="M3239.61 1080.87C3255.59 1066.11 3232.8 1044.91 3220 1064.09 3212.65 1075.11 3223.83 1095.44 3239.61 1080.87Z" fill="#896559"/><path d="M3330.14 978.993C3340.76 965.963 3321.06 949.763 3310.72 963.638 3302.81 974.253 3316.69 995.48 3330.14 978.993Z" fill="#896559"/><path d="M3185.99 1165.06C3198.98 1147.27 3176.45 1132.62 3165.07 1151.53 3158.54 1162.39 3174.14 1181.27 3185.99 1165.06Z" fill="#896559"/><path d="M3071.3 881.825C3088.07 895.852 3105.39 854.396 3091.4 849.675 3069.56 842.298 3054.98 868.177 3071.3 881.825Z" fill="#896559"/><path d="M3461.59 398.554C3438.6 398.554 3415.96 400.012 3393.73 402.794 3389.73 407.588 3394.82 414.385 3396.49 417.709 3397.5 419.735 3401.72 420.076 3403.91 421.173 3407.1 422.768 3410.39 426.996 3413.59 428.594 3425 434.297 3445.39 435.666 3458.12 431.421 3472.75 426.544 3443.68 414.724 3446.18 409.722 3446.64 408.784 3449.89 409.157 3451.27 409.157 3462.41 409.157 3477.6 406.443 3488.45 409.157 3492.93 410.278 3500.86 409.989 3504.99 412.054 3507.81 413.467 3502.32 416.399 3503.86 419.475 3507.45 426.662 3519.41 428.658 3527.25 426.898 3532.92 429.73 3583.72 427.793 3579.28 418.91 3577.59 415.545 3570.45 414.216 3567.26 412.619 3562.55 410.263 3557.5 408.069 3552.13 406.116 3522.68 401.154 3492.45 398.554 3461.59 398.554Z" fill="#F2F2F2"/></g></g></g><path d="M3381 396C3417.75 400.34 3454.5 404.68 3486.71 435.058 3518.92 465.437 3548.21 516.429 3574.24 578.271 3600.28 640.113 3622.05 722.569 3642.92 806.11 3663.8 889.651 3683.99 997.06 3699.48 1079.52 3714.97 1161.97 3727.09 1246.6 3735.84 1300.85 3744.59 1355.09 3748.3 1380.05 3752 1405" stroke="#000000" stroke-width="27.5" stroke-miterlimit="8" stroke-dasharray="82.5 27.5" fill="none" fill-rule="evenodd"/><path d="M2983 692C3080.97 693.815 3178.95 695.63 3264.8 708.335 3350.66 721.041 3428.74 742.368 3498.14 768.232 3567.54 794.097 3625.58 828.583 3681.22 863.523 3736.87 898.462 3790.71 943.385 3832 977.871 3873.28 1012.36 3905.59 1047.75 3928.92 1070.44 3952.26 1093.13 3962.13 1103.56 3972 1114" stroke="#000000" stroke-width="27.5" stroke-miterlimit="8" stroke-dasharray="82.5 27.5" fill="none" fill-rule="evenodd"/><path d="M2947 692.5C2947 670.133 2965.13 652 2987.5 652 3009.87 652 3028 670.133 3028 692.5 3028 714.867 3009.87 733 2987.5 733 2965.13 733 2947 714.867 2947 692.5Z" stroke="#000000" stroke-width="13.75" stroke-miterlimit="8" fill="#C00000" fill-rule="evenodd"/><path d="M3712 1401C3712 1378.36 3730.36 1360 3753 1360 3775.64 1360 3794 1378.36 3794 1401 3794 1423.64 3775.64 1442 3753 1442 3730.36 1442 3712 1423.64 3712 1401Z" stroke="#000000" stroke-width="13.75" stroke-miterlimit="8" fill="#C00000" fill-rule="evenodd"/><path d="M3353 400C3353 377.356 3371.36 359 3394 359 3416.64 359 3435 377.356 3435 400 3435 422.644 3416.64 441 3394 441 3371.36 441 3353 422.644 3353 400Z" stroke="#000000" stroke-width="13.75" stroke-miterlimit="8" fill="#C00000" fill-rule="evenodd"/><path d="M3931 1111C3931 1088.36 3949.36 1070 3972 1070 3994.64 1070 4013 1088.36 4013 1111 4013 1133.64 3994.64 1152 3972 1152 3949.36 1152 3931 1133.64 3931 1111Z" stroke="#000000" stroke-width="13.75" stroke-miterlimit="8" fill="#C00000" fill-rule="evenodd"/><text fill="#C00000" font-family="Consolas,Consolas_MSFontService,sans-serif" font-weight="400" font-size="83" transform="matrix(1 0 0 1 2756.54 679)">300<tspan font-size="83" x="135.781" y="0">째</tspan><tspan font-size="83" x="546.556" y="-360">350</tspan>째<tspan font-size="83" x="1286.38" y="520">100</tspan><tspan font-size="83" x="1422.17" y="520">째</tspan><tspan font-size="83" x="993.023" y="863">150</tspan>째</text></g></svg>