<svg width="1590" height="980" xmlns="http://www.w3.org/2000/svg" xmlns:xlink="http://www.w3.org/1999/xlink" xml:space="preserve" overflow="hidden"><defs><clipPath id="clip0"><rect x="1406" y="635" width="1590" height="980"/></clipPath></defs><g clip-path="url(#clip0)" transform="translate(-1406 -635)"><path d="M2200 756 2650.31 1127.25" stroke="#595959" stroke-width="10.3125" stroke-miterlimit="8" fill="none" fill-rule="evenodd"/><path d="M2870 1493.5 2650 1123" stroke="#595959" stroke-width="10.3125" stroke-miterlimit="8" fill="none" fill-rule="evenodd"/><path d="M0 0 222.12 375.255" stroke="#595959" stroke-width="10.3125" stroke-miterlimit="8" fill="none" fill-rule="evenodd" transform="matrix(1 0 0 -1 2431 1498.25)"/><path d="M1972 1493.5 1752 1123" stroke="#595959" stroke-width="10.3125" stroke-miterlimit="8" fill="none" fill-rule="evenodd"/><path d="M0 0 221.06 370.5" stroke="#595959" stroke-width="10.3125" stroke-miterlimit="8" fill="none" fill-rule="evenodd" transform="matrix(1 0 0 -1 1526 1498.5)"/><path d="M0 0 446.874 370.5" stroke="#595959" stroke-width="10.3125" stroke-miterlimit="8" fill="none" fill-rule="evenodd" transform="matrix(1 0 0 -1 1752 1127.5)"/><path d="M2088 754.5C2088 692.368 2138.14 642 2200 642 2261.86 642 2312 692.368 2312 754.5 2312 816.632 2261.86 867 2200 867 2138.14 867 2088 816.632 2088 754.5Z" stroke="#000000" stroke-width="13.75" stroke-miterlimit="8" fill="#B71234" fill-rule="evenodd"/><text font-family="Assistant,Assistant_MSFontService,sans-serif" font-weight="700" font-size="83" transform="translate(2180.49 782)">1</text><path d="M1637 1125.5C1637 1063.37 1687.37 1013 1749.5 1013 1811.63 1013 1862 1063.37 1862 1125.5 1862 1187.63 1811.63 1238 1749.5 1238 1687.37 1238 1637 1187.63 1637 1125.5Z" stroke="#000000" stroke-width="13.75" stroke-miterlimit="8" fill="#FFFFFF" fill-rule="evenodd"/><text font-family="Assistant,Assistant_MSFontService,sans-serif" font-weight="700" font-size="83" transform="translate(1728.2 1153)">2</text><path d="M1413 1495.5C1413 1433.37 1463.37 1383 1525.5 1383 1587.63 1383 1638 1433.37 1638 1495.5 1638 1557.63 1587.63 1608 1525.5 1608 1463.37 1608 1413 1557.63 1413 1495.5Z" stroke="#000000" stroke-width="13.75" stroke-miterlimit="8" fill="#0046AD" fill-rule="evenodd"/><text font-family="Assistant,Assistant_MSFontService,sans-serif" font-weight="700" font-size="83" transform="translate(1504.5 1523)">4</text><path d="M1863 1495.5C1863 1433.37 1913.37 1383 1975.5 1383 2037.63 1383 2088 1433.37 2088 1495.5 2088 1557.63 2037.63 1608 1975.5 1608 1913.37 1608 1863 1557.63 1863 1495.5Z" stroke="#000000" stroke-width="13.75" stroke-miterlimit="8" fill="#FFD500" fill-rule="evenodd"/><text font-family="Assistant,Assistant_MSFontService,sans-serif" font-weight="700" font-size="83" transform="translate(1954.01 1523)">5</text><path d="M2538 1125.5C2538 1063.37 2588.37 1013 2650.5 1013 2712.63 1013 2763 1063.37 2763 1125.5 2763 1187.63 2712.63 1238 2650.5 1238 2588.37 1238 2538 1187.63 2538 1125.5Z" stroke="#000000" stroke-width="13.75" stroke-miterlimit="8" fill="#FF5800" fill-rule="evenodd"/><text font-family="Assistant,Assistant_MSFontService,sans-serif" font-weight="700" font-size="83" transform="translate(2629.34 1153)">3</text><path d="M2314 1495.5C2314 1433.37 2364.37 1383 2426.5 1383 2488.63 1383 2539 1433.37 2539 1495.5 2539 1557.63 2488.63 1608 2426.5 1608 2364.37 1608 2314 1557.63 2314 1495.5Z" stroke="#000000" stroke-width="13.75" stroke-miterlimit="8" fill="#009B48" fill-rule="evenodd"/><text font-family="Assistant,Assistant_MSFontService,sans-serif" font-weight="700" font-size="83" transform="translate(2405.64 1523)">6</text><path d="M2764 1495.5C2764 1433.37 2814.37 1383 2876.5 1383 2938.63 1383 2989 1433.37 2989 1495.5 2989 1557.63 2938.63 1608 2876.5 1608 2814.37 1608 2764 1557.63 2764 1495.5Z" stroke="#000000" stroke-width="13.75" stroke-miterlimit="8" fill="#009B48" fill-rule="evenodd"/><text font-family="Assistant,Assistant_MSFontService,sans-serif" font-weight="700" font-size="83" transform="translate(2855.15 1523)">7</text></g></svg>