<svg width="4064" height="1844" xmlns="http://www.w3.org/2000/svg" xmlns:xlink="http://www.w3.org/1999/xlink" xml:space="preserve" overflow="hidden"><defs><clipPath id="clip0"><rect x="127" y="354" width="4064" height="1844"/></clipPath><clipPath id="clip1"><rect x="1196" y="398" width="418" height="209"/></clipPath><clipPath id="clip2"><rect x="1196" y="398" width="418" height="209"/></clipPath><clipPath id="clip3"><rect x="1196" y="398" width="418" height="209"/></clipPath><clipPath id="clip4"><rect x="687" y="401" width="419" height="210"/></clipPath><clipPath id="clip5"><rect x="687" y="401" width="419" height="210"/></clipPath><clipPath id="clip6"><rect x="687" y="401" width="419" height="210"/></clipPath><clipPath id="clip7"><rect x="3583" y="402" width="419" height="210"/></clipPath><clipPath id="clip8"><rect x="3583" y="402" width="419" height="210"/></clipPath><clipPath id="clip9"><rect x="3583" y="402" width="419" height="210"/></clipPath><clipPath id="clip10"><rect x="2568" y="402" width="418" height="210"/></clipPath><clipPath id="clip11"><rect x="2568" y="402" width="418" height="210"/></clipPath><clipPath id="clip12"><rect x="2568" y="402" width="418" height="210"/></clipPath><clipPath id="clip13"><rect x="1197" y="1085" width="419" height="210"/></clipPath><clipPath id="clip14"><rect x="1197" y="1085" width="419" height="210"/></clipPath><clipPath id="clip15"><rect x="1197" y="1085" width="419" height="210"/></clipPath><clipPath id="clip16"><rect x="688" y="1085" width="419" height="210"/></clipPath><clipPath id="clip17"><rect x="688" y="1085" width="419" height="210"/></clipPath><clipPath id="clip18"><rect x="688" y="1085" width="419" height="210"/></clipPath><clipPath id="clip19"><rect x="3075" y="853" width="418" height="209"/></clipPath><clipPath id="clip20"><rect x="3075" y="853" width="418" height="209"/></clipPath><clipPath id="clip21"><rect x="3075" y="853" width="418" height="209"/></clipPath><clipPath id="clip22"><rect x="3075" y="1086" width="418" height="210"/></clipPath><clipPath id="clip23"><rect x="3075" y="1086" width="418" height="210"/></clipPath><clipPath id="clip24"><rect x="3075" y="1086" width="418" height="210"/></clipPath><clipPath id="clip25"><rect x="1703" y="1769" width="419" height="210"/></clipPath><clipPath id="clip26"><rect x="1703" y="1769" width="419" height="210"/></clipPath><clipPath id="clip27"><rect x="1703" y="1769" width="419" height="210"/></clipPath><clipPath id="clip28"><rect x="178" y="1769" width="419" height="210"/></clipPath><clipPath id="clip29"><rect x="178" y="1769" width="419" height="210"/></clipPath><clipPath id="clip30"><rect x="178" y="1769" width="419" height="210"/></clipPath><clipPath id="clip31"><rect x="3583" y="1771" width="419" height="209"/></clipPath><clipPath id="clip32"><rect x="3583" y="1771" width="419" height="209"/></clipPath><clipPath id="clip33"><rect x="3583" y="1771" width="419" height="209"/></clipPath><clipPath id="clip34"><rect x="2568" y="1771" width="418" height="209"/></clipPath><clipPath id="clip35"><rect x="2568" y="1771" width="418" height="209"/></clipPath><clipPath id="clip36"><rect x="2568" y="1771" width="418" height="209"/></clipPath></defs><g clip-path="url(#clip0)" transform="translate(-127 -354)"><path d="M127 646.125 4111.75 646.125 4111.75 659.875 127 659.875ZM4104.88 632.375 4146.12 653 4104.88 673.625Z"/><path d="M1914 628 1914 679.563" stroke="#000000" stroke-width="10.3125" stroke-miterlimit="8" fill="none" fill-rule="evenodd"/><path d="M1405 628 1405 679.563" stroke="#000000" stroke-width="10.3125" stroke-miterlimit="8" fill="none" fill-rule="evenodd"/><path d="M3285 628 3285 679.563" stroke="#000000" stroke-width="10.3125" stroke-miterlimit="8" fill="none" fill-rule="evenodd"/><path d="M2777 628 2777 679.563" stroke="#000000" stroke-width="10.3125" stroke-miterlimit="8" fill="none" fill-rule="evenodd"/><path d="M3793 626 3793 677.562" stroke="#000000" stroke-width="10.3125" stroke-miterlimit="8" fill="none" fill-rule="evenodd"/><text font-family="Consolas,Consolas_MSFontService,sans-serif" font-weight="400" font-size="83" transform="matrix(1 0 0 1 3748.08 757)">22<tspan font-size="83" x="-508.517" y="0">21</tspan><tspan font-size="83" x="-1017.03" y="2">20</tspan><tspan font-size="83" x="-1879.81" y="0">12</tspan><tspan font-size="83" x="-2387.81" y="0">11</tspan><tspan font-size="83" x="-1458.22" y="2">...</tspan></text><g clip-path="url(#clip1)"><g clip-path="url(#clip2)"><g clip-path="url(#clip3)"><path d="M2.6 198.575C0.39 197.6-0.585 195.097 0.4875 193.05 1.3975 191.327 2.925 190.872 9.1 190.645 31.33 189.865 48.3925 181.382 58.6625 166.075 60.6775 163.02 63.635 157.462 63.375 157.202 63.2775 157.105 61.4575 156.162 59.28 155.057 51.6425 151.19 45.6625 146.737 39.4875 140.335 27.2025 127.627 20.865 111.865 21.5475 95.7125 21.84 88.985 22.88 83.915 25.22 78.065 31.4275 62.5625 45.5325 50.57 62.8875 46.0525 69.0625 44.4275 72.1175 44.07 79.625 44.07 87.5225 44.0375 90.9025 44.46 98.085 46.345 112.255 50.0175 125.84 58.4025 134.907 69.095 136.955 71.5 137.312 71.7925 137.735 71.4025 138.125 70.98 138.125 70.655 137.67 68.8675 135.947 61.945 135.2 55.2175 135.2 46.7675L135.2 40.0725 132.535 39.8775C131.04 39.7475 128.31 39.65 126.425 39.6175 124.54 39.6175 121.94 39.4875 120.607 39.3575 118.462 39.1625 118.137 39.0325 117.26 38.0575 116.415 37.115 116.285 36.79 116.447 35.62 116.577 34.6775 116.935 34.0275 117.65 33.41 118.82 32.3375 118.235 32.37 130.942 32.825 140.79 33.215 141.407 33.345 142.22 35.295 142.577 36.1725 142.61 36.9525 142.35 39.2275 141.602 45.7275 142.155 56.355 143.617 63.5375 144.007 65.325 144.3 66.885 144.3 67.0475 144.3 67.1775 145.177 66.8525 146.217 66.3 148.752 65.0325 153.855 63.0175 157.202 61.945 160.29 61.0025 166.66 59.475 167.667 59.475 168.22 59.475 168.317 59.3125 168.187 58.7275 166.952 53.17 166.335 46.8 166.335 39.13L166.335 32.565 158.632 32.37C154.407 32.24 150.475 31.98 149.922 31.8175 148.362 31.33 147.42 29.835 147.647 28.2425 147.842 26.715 148.33 26.0325 149.662 25.48 150.572 25.1225 158.925 25.2525 169.26 25.7725 172.997 25.9675 174.005 27.365 173.55 31.525 172.835 37.5375 173.29 47.5475 174.557 54.73 174.882 56.68 175.175 58.3375 175.175 58.4025 175.175 58.4675 175.305 58.5 175.435 58.5 175.597 58.5 176.247 57.3625 176.897 55.9975 181.642 45.76 183.657 34.775 183.17 21.4825 182.845 13.26 182.877 13 183.56 12.025 184.795 10.3025 185.607 10.1725 196.3 9.8475 202.215 9.6525 206.635 9.6525 207.252 9.815 209.657 10.465 210.795 13 209.755 15.1775 208.715 17.225 207.805 17.55 201.955 17.7125 199.095 17.81 195.585 17.9725 194.122 18.07L191.425 18.265 191.425 21.775 191.425 25.3175 192.822 25.48C193.57 25.5775 197.242 25.74 200.98 25.8375 208.26 26.0325 209.69 26.325 210.177 27.7225 210.307 28.1125 210.405 33.0525 210.405 38.675 210.437 48.945 210.827 53.495 212.03 57.655L212.387 58.955 213.915 55.6725C218.822 45.11 221.162 30.5825 220.057 17.7775 219.667 13.6175 219.7 13.2275 220.252 12.285 221.585 10.01 221.422 10.0425 233.155 9.6525 242.775 9.3275 243.847 9.36 244.855 9.8475 246.35 10.5625 247.13 12.0575 246.902 13.8775 246.61 16.575 244.887 17.55 240.467 17.55 239.102 17.55 235.82 17.6475 233.155 17.745L228.312 17.9725 228.28 24.505C228.28 28.1125 228.085 32.6625 227.857 34.6125 226.785 44.33 223.892 54.275 220.122 61.5225 219.472 62.725 219.017 63.765 219.082 63.83 219.147 63.895 220.675 64.545 222.462 65.2925 226.85 67.145 231.237 69.5175 234.975 72.0525L238.062 74.165 238.81 73.2225C241.735 69.6475 245.082 63.57 247.13 58.11 250.477 49.1075 252.102 36.0425 251.225 25.2525 250.867 20.7675 250.867 20.41 251.452 19.4025 252.557 17.4525 253.24 17.3225 264.485 16.9325 275.437 16.575 275.99 16.6075 277.355 18.1675 277.712 18.5575 278.037 19.5 278.135 20.4425 278.265 21.905 278.167 22.1325 277.16 23.2375 276.055 24.44 275.957 24.4725 273.13 24.7325 271.537 24.8625 268.352 24.9925 266.012 24.9925 263.705 25.025 261.235 25.1225 260.585 25.22L259.35 25.4475 259.577 28.73C259.837 33.02 259.187 41.8925 258.212 47.6125 256.23 59.085 252.135 69.0625 246.187 76.83L244.172 79.495 245.505 80.9575C246.252 81.7375 247.195 82.81 247.585 83.3625L248.332 84.305 249.21 83.2C252.297 79.1375 259.382 72.8 264.94 69.1275 290.972 52 330.655 47.4175 363.935 57.72 391.982 66.3975 410.67 83.525 415.22 104.682 416.065 108.517 416.065 117.032 415.22 120.867 411.645 137.507 399.23 151.775 380.185 161.135 360.782 170.69 338.13 174.427 314.21 172.055 283.075 169 256.262 154.635 244.725 134.81L243.295 132.372 240.207 134.712C236.307 137.637 234.162 138.905 229.092 141.375 204.977 153.01 169.422 151.385 145.697 137.54 144.43 136.792 143.292 136.175 143.227 136.175 143.13 136.175 142.707 136.727 142.317 137.41 140.075 141.147 134.582 147.127 130.227 150.572 127.595 152.685 122.915 155.545 119.405 157.17 116.642 158.47 109.98 160.875 109.102 160.875 108.907 160.875 108.517 161.005 108.257 161.167 107.9 161.395 108.127 161.947 109.33 163.962 114.822 172.997 122.135 179.562 131.982 184.242 140.335 188.207 149.435 190.255 161.037 190.742 166.075 190.937 166.692 191.035 167.635 191.717 168.772 192.53 169.52 194.447 169.195 195.78 169.097 196.235 168.545 197.112 168.057 197.697L167.082 198.737 161.785 198.672C144.04 198.51 127.822 193.18 115.895 183.592 110.467 179.237 104.877 172.477 101.335 166.042L99.6125 162.922 92.95 162.922C85.475 162.955 81.0875 162.435 74.815 160.875 72.605 160.322 70.98 160.03 70.915 160.225 70.525 161.297 67.7625 166.692 66.5925 168.545 60.5475 178.23 52.4225 185.672 42.315 190.742 32.63 195.65 21.385 198.282 8.385 198.737 5.1675 198.835 3.12 198.77 2.6 198.575ZM204.555 55.575C203.58 49.92 202.995 41.47 203.222 36.6925L203.417 32.9225 199.972 32.695C194.317 32.37 191.1 32.435 191.1 32.9225 191.1 34.125 190.32 39.325 189.605 42.9 188.727 47.3525 187.395 51.9675 185.965 55.51L185.022 57.785 188.467 57.98C192.952 58.24 200.427 59.085 203.125 59.605 204.295 59.8325 205.27 59.995 205.27 59.995 205.302 59.9625 204.977 57.98 204.555 55.575Z" stroke="#002060" stroke-width="0.687603" fill="#002060" transform="matrix(1.00182 0 0 -1 1197.12 606)"/></g></g></g><path d="M1.24446e-05-3.4375 76.7708-3.43722 76.7708 3.43778-1.24446e-05 3.4375ZM72.1876-13.7497 99.6875 0.000360892 72.1874 13.7503Z" fill="#002060" transform="matrix(-1 0 0 1 1332.19 382.5)"/><g clip-path="url(#clip4)"><g clip-path="url(#clip5)"><g clip-path="url(#clip6)"><path d="M2.60473 198.936C0.390709 197.959-0.586063 195.452 0.488386 193.401 1.40004 191.675 2.93032 191.219 9.11654 190.991 31.3869 190.21 48.4804 181.712 58.7691 166.377 60.7878 163.316 63.7507 157.749 63.4902 157.488 63.3925 157.391 61.5692 156.446 59.3877 155.339 51.7364 151.465 45.7455 147.004 39.5593 140.59 27.2519 127.859 20.9029 112.068 21.5867 95.8865 21.8797 89.1467 22.9216 84.0675 25.2658 78.2069 31.4846 62.6762 45.6153 50.6619 63.0018 46.1362 69.188 44.5082 72.2486 44.1501 79.7697 44.1501 87.6816 44.1175 91.0677 44.5408 98.2633 46.4292 112.459 50.1084 126.069 58.5086 135.153 69.2206 137.204 71.6299 137.562 71.923 137.985 71.5323 138.376 71.109 138.376 70.7834 137.92 68.9927 136.195 62.0576 135.446 55.3179 135.446 46.8525L135.446 40.1453 132.776 39.95C131.278 39.8197 128.543 39.7221 126.655 39.6895 124.766 39.6895 122.162 39.5593 120.827 39.429 118.678 39.2337 118.352 39.1034 117.473 38.1267 116.627 37.1825 116.496 36.8569 116.659 35.6847 116.789 34.7405 117.148 34.0893 117.864 33.4707 119.036 32.3963 118.45 32.4288 131.18 32.8847 141.046 33.2754 141.665 33.4056 142.478 35.3591 142.837 36.2382 142.869 37.0197 142.609 39.2988 141.86 45.8106 142.413 56.4574 143.879 63.653 144.269 65.4437 144.562 67.0066 144.562 67.1694 144.562 67.2996 145.441 66.974 146.483 66.4205 149.023 65.1507 154.135 63.132 157.488 62.0576 160.581 61.1134 166.963 59.5831 167.972 59.5831 168.526 59.5831 168.623 59.4203 168.493 58.8342 167.256 53.2666 166.637 46.8851 166.637 39.2011L166.637 32.6242 158.921 32.4288C154.688 32.2986 150.748 32.0381 150.195 31.8753 148.632 31.3869 147.688 29.8892 147.916 28.2938 148.111 26.7636 148.6 26.0798 149.935 25.5263 150.846 25.1682 159.214 25.2984 169.568 25.8193 173.312 26.0147 174.321 27.4147 173.865 31.5823 173.149 37.6057 173.605 47.6339 174.875 54.8295 175.2 56.783 175.493 58.4435 175.493 58.5086 175.493 58.5738 175.624 58.6063 175.754 58.6063 175.917 58.6063 176.568 57.4668 177.219 56.0993 181.973 45.8432 183.991 34.8382 183.503 21.5215 183.177 13.2841 183.21 13.0236 183.894 12.0469 185.131 10.3212 185.945 10.191 196.657 9.8654 202.583 9.67004 207.011 9.67004 207.629 9.83284 210.039 10.484 211.178 13.0236 210.136 15.2051 209.094 17.2563 208.183 17.5819 202.322 17.7447 199.457 17.8424 195.94 18.0052 194.475 18.1028L191.773 18.2982 191.773 21.8146 191.773 25.3635 193.173 25.5263C193.922 25.624 197.601 25.7868 201.345 25.8845 208.639 26.0798 210.071 26.3728 210.559 27.7729 210.69 28.1636 210.787 33.1126 210.787 38.7453 210.82 49.034 211.211 53.5922 212.415 57.7598L212.773 59.0621 214.304 55.7737C219.22 45.192 221.564 30.6381 220.457 17.8098 220.067 13.6422 220.099 13.2515 220.653 12.3073 221.988 10.0282 221.825 10.0608 233.579 9.67004 243.216 9.34445 244.291 9.37701 245.3 9.8654 246.798 10.5817 247.579 12.0794 247.351 13.9027 247.058 16.6051 245.333 17.5819 240.905 17.5819 239.537 17.5819 236.249 17.6796 233.579 17.7773L228.727 18.0052 228.695 24.5495C228.695 28.1636 228.5 32.7219 228.272 34.6754 227.197 44.4106 224.299 54.3736 220.523 61.6343 219.871 62.839 219.416 63.8809 219.481 63.946 219.546 64.0111 221.076 64.6623 222.867 65.4112 227.262 67.267 231.658 69.6438 235.402 72.1834L238.495 74.2998 239.244 73.3556C242.174 69.7741 245.528 63.6855 247.579 58.2156 250.933 49.1968 252.561 36.108 251.682 25.2984 251.323 20.8052 251.323 20.4471 251.91 19.4378 253.017 17.4842 253.7 17.354 264.966 16.9633 275.938 16.6051 276.492 16.6377 277.859 18.2005 278.217 18.5912 278.543 19.5354 278.641 20.4797 278.771 21.9448 278.673 22.1727 277.664 23.2797 276.557 24.4844 276.459 24.517 273.626 24.7775 272.031 24.9077 268.84 25.0379 266.496 25.0379 264.184 25.0705 261.71 25.1682 261.059 25.2658L259.821 25.4937 260.049 28.7822C260.31 33.08 259.659 41.9686 258.682 47.699 256.696 59.1924 252.593 69.188 246.635 76.9696L244.616 79.6395 245.951 81.1046C246.7 81.8861 247.644 82.9605 248.035 83.514L248.784 84.4582 249.663 83.3512C252.756 79.2813 259.854 72.9323 265.422 69.2531 291.501 52.0945 331.256 47.5037 364.596 57.8249 392.695 66.5182 411.416 83.6768 415.975 104.873 416.821 108.715 416.821 117.245 415.975 121.087 412.393 137.757 399.956 152.051 380.876 161.428 361.438 171 338.745 174.745 314.781 172.368 283.589 169.307 256.728 154.916 245.17 135.055L243.737 132.613 240.644 134.957C236.737 137.888 234.588 139.157 229.509 141.632 205.35 153.288 169.73 151.66 145.962 137.79 144.692 137.041 143.553 136.422 143.488 136.422 143.39 136.422 142.967 136.976 142.576 137.66 140.33 141.404 134.827 147.395 130.464 150.846 127.827 152.962 123.138 155.828 119.622 157.456 116.854 158.758 110.18 161.167 109.301 161.167 109.105 161.167 108.715 161.298 108.454 161.46 108.096 161.688 108.324 162.242 109.529 164.26 115.031 173.312 122.357 179.889 132.222 184.577 140.59 188.55 149.707 190.601 161.33 191.089 166.377 191.285 166.995 191.382 167.94 192.066 169.079 192.88 169.828 194.801 169.503 196.136 169.405 196.592 168.851 197.471 168.363 198.057L167.386 199.099 162.079 199.034C144.302 198.871 128.055 193.531 116.106 183.926 110.668 179.563 105.068 172.791 101.519 166.344L99.7935 163.219 93.1189 163.219C85.6303 163.251 81.2349 162.73 74.951 161.167 72.737 160.614 71.109 160.321 71.0439 160.516 70.6532 161.591 67.8857 166.995 66.7135 168.851 60.6575 178.554 52.5178 186.01 42.3919 191.089 32.6893 196.006 21.4239 198.643 8.40024 199.099 5.17689 199.196 3.12567 199.131 2.60473 198.936ZM204.927 55.676C203.95 50.0107 203.364 41.5454 203.592 36.7592L203.787 32.9823 200.336 32.7544C194.671 32.4288 191.447 32.4939 191.447 32.9823 191.447 34.187 190.666 39.3965 189.95 42.978 189.07 47.4386 187.736 52.0619 186.303 55.6109L185.359 57.89 188.81 58.0854C193.303 58.3458 200.792 59.1924 203.494 59.7133 204.666 59.9412 205.643 60.104 205.643 60.104 205.676 60.0715 205.35 58.0854 204.927 55.676Z" stroke="#0070C0" stroke-width="0.688852" fill="#0070C0" transform="matrix(-1 0 0 -1.00298 1104.88 611)"/></g></g></g><path d="M970.5 383.062 1047.27 383.063 1047.27 389.938 970.5 389.937ZM1042.69 372.75 1070.19 386.5 1042.69 400.25Z" fill="#0070C0"/><g clip-path="url(#clip7)"><g clip-path="url(#clip8)"><g clip-path="url(#clip9)"><path d="M2.61097 199.413C0.391645 198.434-0.587468 195.921 0.489557 193.864 1.4034 192.135 2.93734 191.678 9.13839 191.449 31.4622 190.666 48.5967 182.148 58.91 166.776 60.9335 163.708 63.9035 158.127 63.6424 157.866 63.5445 157.768 61.7168 156.821 59.5301 155.712 51.8604 151.828 45.8552 147.357 39.6541 140.927 27.3173 128.166 20.953 112.337 21.6384 96.1163 21.9321 89.3604 22.9765 84.269 25.3264 78.3944 31.5601 62.8265 45.7246 50.7834 63.1528 46.2468 69.3539 44.6149 72.4218 44.2559 79.9609 44.2559 87.8918 44.2233 91.286 44.6476 98.4988 46.5405 112.729 50.2285 126.371 58.6489 135.477 69.3865 137.533 71.8017 137.892 72.0954 138.316 71.7038 138.708 71.2795 138.708 70.9531 138.251 69.1581 136.521 62.2063 135.77 55.4505 135.77 46.9648L135.77 40.2416 133.094 40.0457C131.593 39.9152 128.851 39.8173 126.958 39.7846 125.065 39.7846 122.454 39.6541 121.116 39.5236 118.962 39.3277 118.636 39.1972 117.755 38.2181 116.906 37.2716 116.776 36.9452 116.939 35.7703 117.069 34.8238 117.428 34.1711 118.146 33.551 119.321 32.4739 118.734 32.5066 131.495 32.9635 141.384 33.3551 142.004 33.4857 142.82 35.4439 143.179 36.3251 143.212 37.1084 142.951 39.393 142.2 45.9204 142.755 56.5928 144.223 63.8056 144.615 65.6006 144.909 67.1672 144.909 67.3304 144.909 67.4609 145.79 67.1346 146.834 66.5797 149.38 65.3069 154.504 63.2834 157.866 62.2063 160.966 61.2599 167.363 59.7259 168.375 59.7259 168.93 59.7259 169.028 59.5627 168.897 58.9753 167.657 53.3943 167.037 46.9975 167.037 39.2951L167.037 32.7024 159.302 32.5066C155.059 32.376 151.11 32.1149 150.555 31.9517 148.988 31.4622 148.042 29.9609 148.27 28.3617 148.466 26.8277 148.956 26.1423 150.294 25.5875 151.208 25.2285 159.596 25.359 169.974 25.8812 173.727 26.0771 174.739 27.4805 174.282 31.658 173.564 37.6959 174.021 47.7481 175.294 54.9609 175.62 56.9191 175.914 58.5836 175.914 58.6489 175.914 58.7142 176.045 58.7468 176.175 58.7468 176.338 58.7468 176.991 57.6045 177.644 56.2338 182.409 45.9531 184.432 34.9217 183.943 21.5731 183.616 13.3159 183.649 13.0548 184.334 12.0757 185.575 10.346 186.391 10.2154 197.128 9.88905 203.068 9.69322 207.507 9.69322 208.127 9.85641 210.542 10.5092 211.684 13.0548 210.64 15.2415 209.596 17.2977 208.682 17.624 202.807 17.7872 199.935 17.8851 196.41 18.0483 194.942 18.1462L192.233 18.3421 192.233 21.8669 192.233 25.4243 193.636 25.5875C194.387 25.6854 198.075 25.8486 201.828 25.9465 209.139 26.1423 210.575 26.4361 211.064 27.8395 211.195 28.2311 211.293 33.192 211.293 38.8382 211.325 49.1515 211.717 53.7207 212.925 57.8983L213.284 59.2037 214.818 55.9074C219.746 45.3003 222.096 30.7115 220.986 17.8525 220.594 13.675 220.627 13.2833 221.182 12.3368 222.52 10.0522 222.357 10.0849 234.139 9.69322 243.799 9.36685 244.876 9.39949 245.888 9.88905 247.389 10.6071 248.173 12.1084 247.944 13.9361 247.65 16.6449 245.921 17.624 241.482 17.624 240.111 17.624 236.815 17.722 234.139 17.8199L229.276 18.0483 229.243 24.6084C229.243 28.2311 229.047 32.8003 228.819 34.7585 227.742 44.517 224.837 54.504 221.051 61.7821 220.398 62.9896 219.942 64.034 220.007 64.0993 220.072 64.1646 221.606 64.8173 223.401 65.568 227.807 67.4283 232.213 69.8108 235.966 72.3565L239.067 74.4779 239.818 73.5314C242.755 69.9413 246.117 63.8382 248.173 58.3552 251.534 49.3147 253.166 36.1946 252.285 25.359 251.926 20.8551 251.926 20.4961 252.513 19.4844 253.623 17.5261 254.308 17.3956 265.601 17.0039 276.6 16.6449 277.154 16.6776 278.525 18.2442 278.884 18.6358 279.211 19.5823 279.308 20.5287 279.439 21.9974 279.341 22.2259 278.329 23.3355 277.22 24.5431 277.122 24.5758 274.282 24.8368 272.683 24.9674 269.485 25.0979 267.135 25.0979 264.818 25.1306 262.337 25.2285 261.684 25.3264L260.444 25.5549 260.673 28.8512C260.934 33.1593 260.281 42.0692 259.302 47.8134 257.311 59.3343 253.199 69.3539 247.226 77.1542L245.203 79.8304 246.541 81.2991C247.291 82.0824 248.238 83.1594 248.63 83.7142L249.38 84.6607 250.261 83.551C253.362 79.4714 260.477 73.1071 266.058 69.4192 292.2 52.2194 332.05 47.6176 365.47 57.9635 393.636 66.6776 412.403 83.8774 416.972 105.124 417.82 108.975 417.82 117.526 416.972 121.377 413.382 138.088 400.914 152.415 381.789 161.815 362.305 171.41 339.557 175.163 315.536 172.781 284.269 169.713 257.344 155.287 245.758 135.379L244.321 132.931 241.221 135.281C237.304 138.218 235.15 139.491 230.059 141.971 205.842 153.656 170.137 152.024 146.312 138.12 145.039 137.37 143.897 136.75 143.832 136.75 143.734 136.75 143.31 137.304 142.918 137.99 140.666 141.743 135.15 147.748 130.777 151.208 128.133 153.329 123.434 156.201 119.909 157.833 117.135 159.139 110.444 161.554 109.563 161.554 109.367 161.554 108.975 161.684 108.714 161.847 108.355 162.076 108.584 162.631 109.791 164.654 115.307 173.727 122.65 180.32 132.539 185.02 140.927 189.002 150.065 191.058 161.717 191.547 166.776 191.743 167.396 191.841 168.342 192.526 169.485 193.342 170.235 195.268 169.909 196.606 169.811 197.063 169.256 197.944 168.767 198.532L167.787 199.576 162.468 199.511C144.648 199.348 128.362 193.995 116.384 184.367 110.934 179.994 105.32 173.205 101.763 166.743L100.033 163.61 93.3422 163.61C85.8356 163.643 81.4296 163.12 75.1306 161.554 72.9113 160.999 71.2795 160.705 71.2142 160.901 70.8225 161.978 68.0484 167.396 66.8735 169.256 60.803 178.982 52.6437 186.456 42.4935 191.547 32.7677 196.475 21.4752 199.119 8.42038 199.576 5.1893 199.674 3.13316 199.609 2.61097 199.413ZM205.418 55.8095C204.439 50.1306 203.851 41.645 204.08 36.8473L204.276 33.0614 200.816 32.8329C195.137 32.5066 191.906 32.5718 191.906 33.0614 191.906 34.269 191.123 39.4909 190.405 43.081 189.524 47.5523 188.186 52.1868 186.75 55.7442L185.803 58.0288 189.263 58.2246C193.767 58.4857 201.273 59.3343 203.982 59.8565 205.157 60.0849 206.136 60.2481 206.136 60.2481 206.169 60.2155 205.842 58.2246 205.418 55.8095Z" stroke="#C55A11" stroke-width="0.690504" fill="#C55A11" transform="matrix(1 0 0 -1.00059 3584.12 612)"/></g></g></g><path d="M1.24446e-05-3.4375 76.7708-3.43722 76.7708 3.43778-1.24446e-05 3.4375ZM72.1876-13.7497 99.6875 0.000360892 72.1874 13.7503Z" fill="#C55A11" transform="matrix(-1 0 0 1 3720.19 387.5)"/><g clip-path="url(#clip10)"><g clip-path="url(#clip11)"><g clip-path="url(#clip12)"><path d="M2.60472 198.936C0.390708 197.959-0.586063 195.452 0.488386 193.401 1.40004 191.675 2.93031 191.219 9.11653 190.991 31.3869 190.21 48.4804 181.712 58.7691 166.377 60.7877 163.316 63.7506 157.749 63.4901 157.488 63.3924 157.39 61.5691 156.446 59.3877 155.339 51.7363 151.465 45.7454 147.004 39.5592 140.59 27.2519 127.859 20.9029 112.068 21.5866 95.8864 21.8797 89.1466 22.9216 84.0674 25.2658 78.2068 31.4846 62.6761 45.6152 50.6619 63.0017 46.1362 69.188 44.5082 72.2485 44.1501 79.7696 44.1501 87.6815 44.1175 91.0676 44.5408 98.2632 46.4292 112.459 50.1084 126.069 58.5086 135.153 69.2205 137.204 71.6299 137.562 71.9229 137.985 71.5322 138.376 71.1089 138.376 70.7833 137.92 68.9926 136.194 62.0575 135.446 55.3178 135.446 46.8525L135.446 40.1453 132.776 39.9499C131.278 39.8197 128.543 39.722 126.655 39.6895 124.766 39.6895 122.162 39.5592 120.827 39.429 118.678 39.2336 118.352 39.1034 117.473 38.1266 116.626 37.1824 116.496 36.8568 116.659 35.6847 116.789 34.7405 117.147 34.0893 117.864 33.4707 119.036 32.3962 118.45 32.4288 131.18 32.8846 141.046 33.2753 141.664 33.4056 142.478 35.3591 142.837 36.2382 142.869 37.0196 142.609 39.2988 141.86 45.8106 142.413 56.4574 143.878 63.6529 144.269 65.4437 144.562 67.0065 144.562 67.1693 144.562 67.2995 145.441 66.9739 146.483 66.4204 149.023 65.1506 154.134 63.132 157.488 62.0575 160.581 61.1133 166.963 59.583 167.972 59.583 168.526 59.583 168.623 59.4202 168.493 58.8342 167.256 53.2666 166.637 46.885 166.637 39.2011L166.637 32.6242 158.921 32.4288C154.688 32.2986 150.748 32.0381 150.195 31.8753 148.632 31.3869 147.688 29.8892 147.916 28.2938 148.111 26.7635 148.599 26.0798 149.934 25.5263 150.846 25.1681 159.214 25.2984 169.567 25.8193 173.312 26.0147 174.321 27.4147 173.865 31.5823 173.149 37.6057 173.605 47.6339 174.875 54.8294 175.2 56.783 175.493 58.4435 175.493 58.5086 175.493 58.5737 175.623 58.6063 175.754 58.6063 175.916 58.6063 176.568 57.4667 177.219 56.0992 181.972 45.8431 183.991 34.8382 183.503 21.5215 183.177 13.2841 183.21 13.0236 183.893 12.0468 185.131 10.3212 185.945 10.191 196.657 9.86539 202.582 9.67003 207.01 9.67003 207.629 9.83283 210.038 10.484 211.178 13.0236 210.136 15.2051 209.094 17.2563 208.182 17.5819 202.322 17.7447 199.457 17.8424 195.94 18.0051 194.475 18.1028L191.773 18.2982 191.773 21.8146 191.773 25.3635 193.173 25.5263C193.922 25.624 197.601 25.7868 201.345 25.8844 208.638 26.0798 210.071 26.3728 210.559 27.7729 210.69 28.1636 210.787 33.1125 210.787 38.7453 210.82 49.0339 211.21 53.5922 212.415 57.7597L212.773 59.0621 214.304 55.7736C219.22 45.1919 221.564 30.6381 220.457 17.8098 220.067 13.6422 220.099 13.2515 220.653 12.3073 221.988 10.0282 221.825 10.0607 233.579 9.67003 243.216 9.34444 244.29 9.377 245.3 9.86539 246.798 10.5817 247.579 12.0794 247.351 13.9027 247.058 16.6051 245.332 17.5819 240.904 17.5819 239.537 17.5819 236.248 17.6796 233.579 17.7772L228.727 18.0051 228.695 24.5495C228.695 28.1636 228.499 32.7218 228.271 34.6754 227.197 44.4105 224.299 54.3736 220.522 61.6343 219.871 62.8389 219.415 63.8808 219.48 63.9459 219.546 64.0111 221.076 64.6622 222.867 65.4111 227.262 67.267 231.658 69.6438 235.402 72.1834L238.495 74.2997 239.244 73.3555C242.174 69.774 245.528 63.6855 247.579 58.2156 250.932 49.1967 252.56 36.108 251.681 25.2984 251.323 20.8052 251.323 20.4471 251.909 19.4377 253.016 17.4842 253.7 17.354 264.965 16.9633 275.938 16.6051 276.491 16.6377 277.859 18.2005 278.217 18.5912 278.543 19.5354 278.64 20.4796 278.77 21.9448 278.673 22.1727 277.663 23.2797 276.556 24.4844 276.459 24.517 273.626 24.7774 272.031 24.9077 268.84 25.0379 266.496 25.0379 264.184 25.0705 261.71 25.1681 261.058 25.2658L259.821 25.4937 260.049 28.7822C260.31 33.08 259.658 41.9686 258.682 47.699 256.695 59.1923 252.593 69.188 246.635 76.9696L244.616 79.6394 245.951 81.1046C246.7 81.886 247.644 82.9604 248.035 83.5139L248.784 84.4581 249.663 83.3511C252.756 79.2813 259.854 72.9322 265.421 69.2531 291.501 52.0945 331.256 47.5036 364.596 57.8249 392.695 66.5181 411.416 83.6767 415.974 104.873 416.821 108.715 416.821 117.245 415.974 121.087 412.393 137.757 399.955 152.051 380.876 161.428 361.438 171 338.744 174.744 314.781 172.368 283.589 169.307 256.728 154.916 245.17 135.055L243.737 132.613 240.644 134.957C236.737 137.888 234.588 139.157 229.509 141.632 205.35 153.288 169.73 151.66 145.962 137.79 144.692 137.041 143.553 136.422 143.488 136.422 143.39 136.422 142.967 136.976 142.576 137.66 140.329 141.404 134.827 147.395 130.464 150.846 127.827 152.962 123.138 155.828 119.622 157.456 116.854 158.758 110.18 161.167 109.301 161.167 109.105 161.167 108.715 161.297 108.454 161.46 108.096 161.688 108.324 162.242 109.529 164.26 115.031 173.312 122.357 179.889 132.222 184.577 140.59 188.549 149.706 190.601 161.33 191.089 166.377 191.284 166.995 191.382 167.94 192.066 169.079 192.88 169.828 194.801 169.502 196.136 169.405 196.591 168.851 197.471 168.363 198.057L167.386 199.099 162.079 199.033C144.302 198.871 128.055 193.531 116.106 183.926 110.668 179.563 105.068 172.791 101.519 166.344L99.7934 163.218 93.1188 163.218C85.6303 163.251 81.2348 162.73 74.9509 161.167 72.7369 160.614 71.1089 160.321 71.0438 160.516 70.6531 161.59 67.8856 166.995 66.7135 168.851 60.6575 178.554 52.5177 186.01 42.3919 191.089 32.6893 196.005 21.4238 198.643 8.40023 199.099 5.17689 199.196 3.12567 199.131 2.60472 198.936ZM204.927 55.676C203.95 50.0107 203.364 41.5453 203.592 36.7592L203.787 32.9823 200.336 32.7544C194.67 32.4288 191.447 32.4939 191.447 32.9823 191.447 34.187 190.666 39.3964 189.949 42.9779 189.07 47.4385 187.735 52.0619 186.303 55.6108L185.359 57.89 188.81 58.0853C193.303 58.3458 200.792 59.1923 203.494 59.7133 204.666 59.9412 205.643 60.104 205.643 60.104 205.675 60.0714 205.35 58.0853 204.927 55.676Z" stroke="#C00000" stroke-width="0.688852" fill="#C00000" transform="matrix(-1 0 0 -1.00299 2984.88 612)"/></g></g></g><path d="M2851.5 384.062 2928.27 384.063 2928.27 390.938 2851.5 390.937ZM2923.69 373.75 2951.19 387.5 2923.69 401.25Z" fill="#C00000"/><path d="M897 628 897 679.563" stroke="#000000" stroke-width="10.3125" stroke-miterlimit="8" fill="none" fill-rule="evenodd"/><path d="M388 628 388 679.563" stroke="#000000" stroke-width="10.3125" stroke-miterlimit="8" fill="none" fill-rule="evenodd"/><text font-family="Consolas,Consolas_MSFontService,sans-serif" font-weight="400" font-size="83" transform="matrix(1 0 0 1 851.238 757)">10<tspan font-size="83" x="-485.369" y="0">9</tspan></text><path d="M127 1330.12 4113.47 1330.13 4113.47 1343.88 127 1343.87ZM4106.59 1316.38 4147.84 1337 4106.59 1357.63Z"/><path d="M1916 1312 1916 1363.56" stroke="#000000" stroke-width="10.3125" stroke-miterlimit="8" fill="none" fill-rule="evenodd"/><path d="M1407 1312 1407 1363.56" stroke="#000000" stroke-width="10.3125" stroke-miterlimit="8" fill="none" fill-rule="evenodd"/><path d="M3287 1312 3287 1363.56" stroke="#000000" stroke-width="10.3125" stroke-miterlimit="8" fill="none" fill-rule="evenodd"/><path d="M2778 1312 2778 1363.56" stroke="#000000" stroke-width="10.3125" stroke-miterlimit="8" fill="none" fill-rule="evenodd"/><path d="M3795 1310 3795 1361.56" stroke="#000000" stroke-width="10.3125" stroke-miterlimit="8" fill="none" fill-rule="evenodd"/><text font-family="Consolas,Consolas_MSFontService,sans-serif" font-weight="400" font-size="83" transform="matrix(1 0 0 1 3749.8 1441)">22<tspan font-size="83" x="-508.517" y="0">21</tspan><tspan font-size="83" x="-1017.03" y="2">20</tspan><tspan font-size="83" x="-1879.81" y="0">12</tspan><tspan font-size="83" x="-2387.81" y="0">11</tspan><tspan font-size="83" x="-1458.22" y="2">...</tspan></text><g clip-path="url(#clip13)"><g clip-path="url(#clip14)"><g clip-path="url(#clip15)"><path d="M2.61097 199.413C0.391645 198.434-0.587468 195.921 0.489557 193.864 1.4034 192.135 2.93734 191.678 9.13839 191.449 31.4622 190.666 48.5967 182.148 58.91 166.776 60.9335 163.708 63.9035 158.127 63.6424 157.866 63.5445 157.768 61.7168 156.821 59.5301 155.712 51.8604 151.828 45.8552 147.357 39.6541 140.927 27.3173 128.166 20.953 112.337 21.6384 96.1163 21.9321 89.3604 22.9765 84.269 25.3264 78.3944 31.5601 62.8265 45.7246 50.7834 63.1528 46.2468 69.3539 44.6149 72.4218 44.2559 79.9609 44.2559 87.8918 44.2233 91.286 44.6476 98.4988 46.5405 112.729 50.2285 126.371 58.6489 135.477 69.3865 137.533 71.8017 137.892 72.0954 138.316 71.7038 138.708 71.2795 138.708 70.9531 138.251 69.1581 136.521 62.2063 135.77 55.4505 135.77 46.9648L135.77 40.2416 133.094 40.0457C131.593 39.9152 128.851 39.8173 126.958 39.7846 125.065 39.7846 122.454 39.6541 121.116 39.5236 118.962 39.3277 118.636 39.1972 117.755 38.2181 116.906 37.2716 116.776 36.9452 116.939 35.7703 117.069 34.8238 117.428 34.1711 118.146 33.551 119.321 32.4739 118.734 32.5066 131.495 32.9635 141.384 33.3551 142.004 33.4857 142.82 35.4439 143.179 36.3251 143.212 37.1084 142.951 39.393 142.2 45.9204 142.755 56.5928 144.223 63.8056 144.615 65.6006 144.909 67.1672 144.909 67.3304 144.909 67.4609 145.79 67.1346 146.834 66.5797 149.38 65.3069 154.504 63.2834 157.866 62.2063 160.966 61.2599 167.363 59.7259 168.375 59.7259 168.93 59.7259 169.028 59.5627 168.897 58.9753 167.657 53.3943 167.037 46.9975 167.037 39.2951L167.037 32.7024 159.302 32.5066C155.059 32.376 151.11 32.1149 150.555 31.9517 148.988 31.4622 148.042 29.9609 148.27 28.3617 148.466 26.8277 148.956 26.1423 150.294 25.5875 151.208 25.2285 159.596 25.359 169.974 25.8812 173.727 26.0771 174.739 27.4805 174.282 31.658 173.564 37.6959 174.021 47.7481 175.294 54.9609 175.62 56.9191 175.914 58.5836 175.914 58.6489 175.914 58.7142 176.045 58.7468 176.175 58.7468 176.338 58.7468 176.991 57.6045 177.644 56.2338 182.409 45.9531 184.432 34.9217 183.943 21.5731 183.616 13.3159 183.649 13.0548 184.334 12.0757 185.575 10.346 186.391 10.2154 197.128 9.88905 203.068 9.69322 207.507 9.69322 208.127 9.85641 210.542 10.5092 211.684 13.0548 210.64 15.2415 209.596 17.2977 208.682 17.624 202.807 17.7872 199.935 17.8851 196.41 18.0483 194.942 18.1462L192.233 18.3421 192.233 21.8669 192.233 25.4243 193.636 25.5875C194.387 25.6854 198.075 25.8486 201.828 25.9465 209.139 26.1423 210.575 26.4361 211.064 27.8395 211.195 28.2311 211.293 33.192 211.293 38.8382 211.325 49.1515 211.717 53.7207 212.925 57.8983L213.284 59.2037 214.818 55.9074C219.746 45.3003 222.096 30.7115 220.986 17.8525 220.594 13.675 220.627 13.2833 221.182 12.3368 222.52 10.0522 222.357 10.0849 234.139 9.69322 243.799 9.36685 244.876 9.39949 245.888 9.88905 247.389 10.6071 248.173 12.1084 247.944 13.9361 247.65 16.6449 245.921 17.624 241.482 17.624 240.111 17.624 236.815 17.722 234.139 17.8199L229.276 18.0483 229.243 24.6084C229.243 28.2311 229.047 32.8003 228.819 34.7585 227.742 44.517 224.837 54.504 221.051 61.7821 220.398 62.9896 219.942 64.034 220.007 64.0993 220.072 64.1646 221.606 64.8173 223.401 65.568 227.807 67.4283 232.213 69.8108 235.966 72.3565L239.067 74.4779 239.818 73.5314C242.755 69.9413 246.117 63.8382 248.173 58.3552 251.534 49.3147 253.166 36.1946 252.285 25.359 251.926 20.8551 251.926 20.4961 252.513 19.4844 253.623 17.5261 254.308 17.3956 265.601 17.0039 276.6 16.6449 277.154 16.6776 278.525 18.2442 278.884 18.6358 279.211 19.5823 279.308 20.5287 279.439 21.9974 279.341 22.2259 278.329 23.3355 277.22 24.5431 277.122 24.5758 274.282 24.8368 272.683 24.9674 269.485 25.0979 267.135 25.0979 264.818 25.1306 262.337 25.2285 261.684 25.3264L260.444 25.5549 260.673 28.8512C260.934 33.1593 260.281 42.0692 259.302 47.8134 257.311 59.3343 253.199 69.3539 247.226 77.1542L245.203 79.8304 246.541 81.2991C247.291 82.0824 248.238 83.1594 248.63 83.7142L249.38 84.6607 250.261 83.551C253.362 79.4714 260.477 73.1071 266.058 69.4192 292.2 52.2194 332.05 47.6176 365.47 57.9635 393.636 66.6776 412.403 83.8774 416.972 105.124 417.82 108.975 417.82 117.526 416.972 121.377 413.382 138.088 400.914 152.415 381.789 161.815 362.305 171.41 339.557 175.163 315.536 172.781 284.269 169.713 257.344 155.287 245.758 135.379L244.321 132.931 241.221 135.281C237.304 138.218 235.15 139.491 230.059 141.971 205.842 153.656 170.137 152.024 146.312 138.12 145.039 137.37 143.897 136.75 143.832 136.75 143.734 136.75 143.31 137.304 142.918 137.99 140.666 141.743 135.15 147.748 130.777 151.208 128.133 153.329 123.434 156.201 119.909 157.833 117.135 159.139 110.444 161.554 109.563 161.554 109.367 161.554 108.975 161.684 108.714 161.847 108.355 162.076 108.584 162.631 109.791 164.654 115.307 173.727 122.65 180.32 132.539 185.02 140.927 189.002 150.065 191.058 161.717 191.547 166.776 191.743 167.396 191.841 168.342 192.526 169.485 193.342 170.235 195.268 169.909 196.606 169.811 197.063 169.256 197.944 168.767 198.532L167.787 199.576 162.468 199.511C144.648 199.348 128.362 193.995 116.384 184.367 110.934 179.994 105.32 173.205 101.763 166.743L100.033 163.61 93.3422 163.61C85.8356 163.643 81.4296 163.12 75.1306 161.554 72.9113 160.999 71.2795 160.705 71.2142 160.901 70.8225 161.978 68.0484 167.396 66.8735 169.256 60.803 178.982 52.6437 186.456 42.4935 191.547 32.7677 196.475 21.4752 199.119 8.42038 199.576 5.1893 199.674 3.13316 199.609 2.61097 199.413ZM205.418 55.8095C204.439 50.1306 203.851 41.645 204.08 36.8473L204.276 33.0614 200.816 32.8329C195.137 32.5066 191.906 32.5718 191.906 33.0614 191.906 34.269 191.123 39.4909 190.405 43.081 189.524 47.5523 188.186 52.1868 186.75 55.7442L185.803 58.0288 189.263 58.2246C193.767 58.4857 201.273 59.3343 203.982 59.8565 205.157 60.0849 206.136 60.2481 206.136 60.2481 206.169 60.2155 205.842 58.2246 205.418 55.8095Z" stroke="#002060" stroke-width="0.690504" fill="#002060" transform="matrix(-1 0 0 -1.00059 1615.88 1295)"/></g></g></g><path d="M1481.5 1067.06 1558.27 1067.06 1558.27 1073.94 1481.5 1073.94ZM1553.69 1056.75 1581.19 1070.5 1553.69 1084.25Z" fill="#002060"/><g clip-path="url(#clip16)"><g clip-path="url(#clip17)"><g clip-path="url(#clip18)"><path d="M2.61097 199.413C0.391645 198.434-0.587468 195.921 0.489557 193.864 1.4034 192.135 2.93734 191.678 9.13839 191.449 31.4622 190.666 48.5967 182.148 58.91 166.776 60.9335 163.708 63.9035 158.127 63.6424 157.866 63.5445 157.768 61.7168 156.821 59.5301 155.712 51.8604 151.828 45.8552 147.357 39.6541 140.927 27.3173 128.166 20.953 112.337 21.6384 96.1163 21.9321 89.3604 22.9765 84.269 25.3264 78.3944 31.5601 62.8265 45.7246 50.7834 63.1528 46.2468 69.3539 44.6149 72.4218 44.2559 79.9609 44.2559 87.8918 44.2233 91.286 44.6476 98.4988 46.5405 112.729 50.2285 126.371 58.6489 135.477 69.3865 137.533 71.8017 137.892 72.0954 138.316 71.7038 138.708 71.2795 138.708 70.9531 138.251 69.1581 136.521 62.2063 135.77 55.4505 135.77 46.9648L135.77 40.2416 133.094 40.0457C131.593 39.9152 128.851 39.8173 126.958 39.7846 125.065 39.7846 122.454 39.6541 121.116 39.5236 118.962 39.3277 118.636 39.1972 117.755 38.2181 116.906 37.2716 116.776 36.9452 116.939 35.7703 117.069 34.8238 117.428 34.1711 118.146 33.551 119.321 32.4739 118.734 32.5066 131.495 32.9635 141.384 33.3551 142.004 33.4857 142.82 35.4439 143.179 36.3251 143.212 37.1084 142.951 39.393 142.2 45.9204 142.755 56.5928 144.223 63.8056 144.615 65.6006 144.909 67.1672 144.909 67.3304 144.909 67.4609 145.79 67.1346 146.834 66.5797 149.38 65.3069 154.504 63.2834 157.866 62.2063 160.966 61.2599 167.363 59.7259 168.375 59.7259 168.93 59.7259 169.028 59.5627 168.897 58.9753 167.657 53.3943 167.037 46.9975 167.037 39.2951L167.037 32.7024 159.302 32.5066C155.059 32.376 151.11 32.1149 150.555 31.9517 148.988 31.4622 148.042 29.9609 148.27 28.3617 148.466 26.8277 148.956 26.1423 150.294 25.5875 151.208 25.2285 159.596 25.359 169.974 25.8812 173.727 26.0771 174.739 27.4805 174.282 31.658 173.564 37.6959 174.021 47.7481 175.294 54.9609 175.62 56.9191 175.914 58.5836 175.914 58.6489 175.914 58.7142 176.045 58.7468 176.175 58.7468 176.338 58.7468 176.991 57.6045 177.644 56.2338 182.409 45.9531 184.432 34.9217 183.943 21.5731 183.616 13.3159 183.649 13.0548 184.334 12.0757 185.575 10.346 186.391 10.2154 197.128 9.88905 203.068 9.69322 207.507 9.69322 208.127 9.85641 210.542 10.5092 211.684 13.0548 210.64 15.2415 209.596 17.2977 208.682 17.624 202.807 17.7872 199.935 17.8851 196.41 18.0483 194.942 18.1462L192.233 18.3421 192.233 21.8669 192.233 25.4243 193.636 25.5875C194.387 25.6854 198.075 25.8486 201.828 25.9465 209.139 26.1423 210.575 26.4361 211.064 27.8395 211.195 28.2311 211.293 33.192 211.293 38.8382 211.325 49.1515 211.717 53.7207 212.925 57.8983L213.284 59.2037 214.818 55.9074C219.746 45.3003 222.096 30.7115 220.986 17.8525 220.594 13.675 220.627 13.2833 221.182 12.3368 222.52 10.0522 222.357 10.0849 234.139 9.69322 243.799 9.36685 244.876 9.39949 245.888 9.88905 247.389 10.6071 248.173 12.1084 247.944 13.9361 247.65 16.6449 245.921 17.624 241.482 17.624 240.111 17.624 236.815 17.722 234.139 17.8199L229.276 18.0483 229.243 24.6084C229.243 28.2311 229.047 32.8003 228.819 34.7585 227.742 44.517 224.837 54.504 221.051 61.7821 220.398 62.9896 219.942 64.034 220.007 64.0993 220.072 64.1646 221.606 64.8173 223.401 65.568 227.807 67.4283 232.213 69.8108 235.966 72.3565L239.067 74.4779 239.818 73.5314C242.755 69.9413 246.117 63.8382 248.173 58.3552 251.534 49.3147 253.166 36.1946 252.285 25.359 251.926 20.8551 251.926 20.4961 252.513 19.4844 253.623 17.5261 254.308 17.3956 265.601 17.0039 276.6 16.6449 277.154 16.6776 278.525 18.2442 278.884 18.6358 279.211 19.5823 279.308 20.5287 279.439 21.9974 279.341 22.2259 278.329 23.3355 277.22 24.5431 277.122 24.5758 274.282 24.8368 272.683 24.9674 269.485 25.0979 267.135 25.0979 264.818 25.1306 262.337 25.2285 261.684 25.3264L260.444 25.5549 260.673 28.8512C260.934 33.1593 260.281 42.0692 259.302 47.8134 257.311 59.3343 253.199 69.3539 247.226 77.1542L245.203 79.8304 246.541 81.2991C247.291 82.0824 248.238 83.1594 248.63 83.7142L249.38 84.6607 250.261 83.551C253.362 79.4714 260.477 73.1071 266.058 69.4192 292.2 52.2194 332.05 47.6176 365.47 57.9635 393.636 66.6776 412.403 83.8774 416.972 105.124 417.82 108.975 417.82 117.526 416.972 121.377 413.382 138.088 400.914 152.415 381.789 161.815 362.305 171.41 339.557 175.163 315.536 172.781 284.269 169.713 257.344 155.287 245.758 135.379L244.321 132.931 241.221 135.281C237.304 138.218 235.15 139.491 230.059 141.971 205.842 153.656 170.137 152.024 146.312 138.12 145.039 137.37 143.897 136.75 143.832 136.75 143.734 136.75 143.31 137.304 142.918 137.99 140.666 141.743 135.15 147.748 130.777 151.208 128.133 153.329 123.434 156.201 119.909 157.833 117.135 159.139 110.444 161.554 109.563 161.554 109.367 161.554 108.975 161.684 108.714 161.847 108.355 162.076 108.584 162.631 109.791 164.654 115.307 173.727 122.65 180.32 132.539 185.02 140.927 189.002 150.065 191.058 161.717 191.547 166.776 191.743 167.396 191.841 168.342 192.526 169.485 193.342 170.235 195.268 169.909 196.606 169.811 197.063 169.256 197.944 168.767 198.532L167.787 199.576 162.468 199.511C144.648 199.348 128.362 193.995 116.384 184.367 110.934 179.994 105.32 173.205 101.763 166.743L100.033 163.61 93.3422 163.61C85.8356 163.643 81.4296 163.12 75.1306 161.554 72.9113 160.999 71.2795 160.705 71.2142 160.901 70.8225 161.978 68.0484 167.396 66.8735 169.256 60.803 178.982 52.6437 186.456 42.4935 191.547 32.7677 196.475 21.4752 199.119 8.42038 199.576 5.1893 199.674 3.13316 199.609 2.61097 199.413ZM205.418 55.8095C204.439 50.1306 203.851 41.645 204.08 36.8473L204.276 33.0614 200.816 32.8329C195.137 32.5066 191.906 32.5718 191.906 33.0614 191.906 34.269 191.123 39.4909 190.405 43.081 189.524 47.5523 188.186 52.1868 186.75 55.7442L185.803 58.0288 189.263 58.2246C193.767 58.4857 201.273 59.3343 203.982 59.8565 205.157 60.0849 206.136 60.2481 206.136 60.2481 206.169 60.2155 205.842 58.2246 205.418 55.8095Z" stroke="#0070C0" stroke-width="0.690504" fill="#0070C0" transform="matrix(1 0 0 -1.00059 689.122 1295)"/></g></g></g><path d="M1.24446e-05-3.4375 76.7708-3.43722 76.7708 3.43778-1.24446e-05 3.4375ZM72.1876-13.7497 99.6875 0.000360892 72.1874 13.7503Z" fill="#0070C0" transform="matrix(-1 0 0 1 824.188 1070.5)"/><g clip-path="url(#clip19)"><g clip-path="url(#clip20)"><g clip-path="url(#clip21)"><path d="M2.6 198.575C0.39 197.6-0.585 195.097 0.4875 193.05 1.3975 191.327 2.925 190.872 9.1 190.645 31.33 189.865 48.3925 181.382 58.6625 166.075 60.6775 163.02 63.635 157.462 63.375 157.202 63.2775 157.105 61.4575 156.162 59.28 155.057 51.6425 151.19 45.6625 146.737 39.4875 140.335 27.2025 127.627 20.865 111.865 21.5475 95.7125 21.84 88.985 22.88 83.915 25.22 78.065 31.4275 62.5625 45.5325 50.57 62.8875 46.0525 69.0625 44.4275 72.1175 44.07 79.625 44.07 87.5225 44.0375 90.9025 44.46 98.085 46.345 112.255 50.0175 125.84 58.4025 134.907 69.095 136.955 71.5 137.312 71.7925 137.735 71.4025 138.125 70.98 138.125 70.655 137.67 68.8675 135.947 61.945 135.2 55.2175 135.2 46.7675L135.2 40.0725 132.535 39.8775C131.04 39.7475 128.31 39.65 126.425 39.6175 124.54 39.6175 121.94 39.4875 120.607 39.3575 118.462 39.1625 118.137 39.0325 117.26 38.0575 116.415 37.115 116.285 36.79 116.447 35.62 116.577 34.6775 116.935 34.0275 117.65 33.41 118.82 32.3375 118.235 32.37 130.942 32.825 140.79 33.215 141.407 33.345 142.22 35.295 142.577 36.1725 142.61 36.9525 142.35 39.2275 141.602 45.7275 142.155 56.355 143.617 63.5375 144.007 65.325 144.3 66.885 144.3 67.0475 144.3 67.1775 145.177 66.8525 146.217 66.3 148.752 65.0325 153.855 63.0175 157.202 61.945 160.29 61.0025 166.66 59.475 167.667 59.475 168.22 59.475 168.317 59.3125 168.187 58.7275 166.952 53.17 166.335 46.8 166.335 39.13L166.335 32.565 158.632 32.37C154.407 32.24 150.475 31.98 149.922 31.8175 148.362 31.33 147.42 29.835 147.647 28.2425 147.842 26.715 148.33 26.0325 149.662 25.48 150.572 25.1225 158.925 25.2525 169.26 25.7725 172.997 25.9675 174.005 27.365 173.55 31.525 172.835 37.5375 173.29 47.5475 174.557 54.73 174.882 56.68 175.175 58.3375 175.175 58.4025 175.175 58.4675 175.305 58.5 175.435 58.5 175.597 58.5 176.247 57.3625 176.897 55.9975 181.642 45.76 183.657 34.775 183.17 21.4825 182.845 13.26 182.877 13 183.56 12.025 184.795 10.3025 185.607 10.1725 196.3 9.8475 202.215 9.6525 206.635 9.6525 207.252 9.815 209.657 10.465 210.795 13 209.755 15.1775 208.715 17.225 207.805 17.55 201.955 17.7125 199.095 17.81 195.585 17.9725 194.122 18.07L191.425 18.265 191.425 21.775 191.425 25.3175 192.822 25.48C193.57 25.5775 197.242 25.74 200.98 25.8375 208.26 26.0325 209.69 26.325 210.177 27.7225 210.307 28.1125 210.405 33.0525 210.405 38.675 210.437 48.945 210.827 53.495 212.03 57.655L212.387 58.955 213.915 55.6725C218.822 45.11 221.162 30.5825 220.057 17.7775 219.667 13.6175 219.7 13.2275 220.252 12.285 221.585 10.01 221.422 10.0425 233.155 9.6525 242.775 9.3275 243.847 9.36 244.855 9.8475 246.35 10.5625 247.13 12.0575 246.902 13.8775 246.61 16.575 244.887 17.55 240.467 17.55 239.102 17.55 235.82 17.6475 233.155 17.745L228.312 17.9725 228.28 24.505C228.28 28.1125 228.085 32.6625 227.857 34.6125 226.785 44.33 223.892 54.275 220.122 61.5225 219.472 62.725 219.017 63.765 219.082 63.83 219.147 63.895 220.675 64.545 222.462 65.2925 226.85 67.145 231.237 69.5175 234.975 72.0525L238.062 74.165 238.81 73.2225C241.735 69.6475 245.082 63.57 247.13 58.11 250.477 49.1075 252.102 36.0425 251.225 25.2525 250.867 20.7675 250.867 20.41 251.452 19.4025 252.557 17.4525 253.24 17.3225 264.485 16.9325 275.437 16.575 275.99 16.6075 277.355 18.1675 277.712 18.5575 278.037 19.5 278.135 20.4425 278.265 21.905 278.167 22.1325 277.16 23.2375 276.055 24.44 275.957 24.4725 273.13 24.7325 271.537 24.8625 268.352 24.9925 266.012 24.9925 263.705 25.025 261.235 25.1225 260.585 25.22L259.35 25.4475 259.577 28.73C259.837 33.02 259.187 41.8925 258.212 47.6125 256.23 59.085 252.135 69.0625 246.187 76.83L244.172 79.495 245.505 80.9575C246.252 81.7375 247.195 82.81 247.585 83.3625L248.332 84.305 249.21 83.2C252.297 79.1375 259.382 72.8 264.94 69.1275 290.972 52 330.655 47.4175 363.935 57.72 391.982 66.3975 410.67 83.525 415.22 104.682 416.065 108.517 416.065 117.032 415.22 120.867 411.645 137.507 399.23 151.775 380.185 161.135 360.782 170.69 338.13 174.427 314.21 172.055 283.075 169 256.262 154.635 244.725 134.81L243.295 132.372 240.207 134.712C236.307 137.637 234.162 138.905 229.092 141.375 204.977 153.01 169.422 151.385 145.697 137.54 144.43 136.792 143.292 136.175 143.227 136.175 143.13 136.175 142.707 136.727 142.317 137.41 140.075 141.147 134.582 147.127 130.227 150.572 127.595 152.685 122.915 155.545 119.405 157.17 116.642 158.47 109.98 160.875 109.102 160.875 108.907 160.875 108.517 161.005 108.257 161.167 107.9 161.395 108.127 161.947 109.33 163.962 114.822 172.997 122.135 179.562 131.982 184.242 140.335 188.207 149.435 190.255 161.037 190.742 166.075 190.937 166.692 191.035 167.635 191.717 168.772 192.53 169.52 194.447 169.195 195.78 169.097 196.235 168.545 197.112 168.057 197.697L167.082 198.737 161.785 198.672C144.04 198.51 127.822 193.18 115.895 183.592 110.467 179.237 104.877 172.477 101.335 166.042L99.6125 162.922 92.95 162.922C85.475 162.955 81.0875 162.435 74.815 160.875 72.605 160.322 70.98 160.03 70.915 160.225 70.525 161.297 67.7625 166.692 66.5925 168.545 60.5475 178.23 52.4225 185.672 42.315 190.742 32.63 195.65 21.385 198.282 8.385 198.737 5.1675 198.835 3.12 198.77 2.6 198.575ZM204.555 55.575C203.58 49.92 202.995 41.47 203.222 36.6925L203.417 32.9225 199.972 32.695C194.317 32.37 191.1 32.435 191.1 32.9225 191.1 34.125 190.32 39.325 189.605 42.9 188.727 47.3525 187.395 51.9675 185.965 55.51L185.022 57.785 188.467 57.98C192.952 58.24 200.427 59.085 203.125 59.605 204.295 59.8325 205.27 59.995 205.27 59.995 205.302 59.9625 204.977 57.98 204.555 55.575Z" stroke="#C55A11" stroke-width="0.687602" fill="#C55A11" transform="matrix(-1.00182 0 0 -1 3492.88 1062)"/></g></g></g><path d="M3359.5 835.062 3436.27 835.063 3436.27 841.938 3359.5 841.937ZM3431.69 824.75 3459.19 838.5 3431.69 852.25Z" fill="#C55A11"/><g clip-path="url(#clip22)"><g clip-path="url(#clip23)"><g clip-path="url(#clip24)"><path d="M2.60472 198.936C0.390708 197.959-0.586063 195.452 0.488386 193.401 1.40004 191.675 2.93031 191.219 9.11653 190.991 31.3869 190.21 48.4804 181.712 58.7691 166.377 60.7877 163.316 63.7506 157.749 63.4901 157.488 63.3924 157.39 61.5691 156.446 59.3877 155.339 51.7363 151.465 45.7454 147.004 39.5592 140.59 27.2519 127.859 20.9029 112.068 21.5866 95.8864 21.8797 89.1466 22.9216 84.0674 25.2658 78.2068 31.4846 62.6761 45.6152 50.6619 63.0017 46.1362 69.188 44.5082 72.2485 44.1501 79.7696 44.1501 87.6815 44.1175 91.0676 44.5408 98.2632 46.4292 112.459 50.1084 126.069 58.5086 135.153 69.2205 137.204 71.6299 137.562 71.9229 137.985 71.5322 138.376 71.1089 138.376 70.7833 137.92 68.9926 136.194 62.0575 135.446 55.3178 135.446 46.8525L135.446 40.1453 132.776 39.9499C131.278 39.8197 128.543 39.722 126.655 39.6895 124.766 39.6895 122.162 39.5592 120.827 39.429 118.678 39.2336 118.352 39.1034 117.473 38.1266 116.626 37.1824 116.496 36.8568 116.659 35.6847 116.789 34.7405 117.147 34.0893 117.864 33.4707 119.036 32.3962 118.45 32.4288 131.18 32.8846 141.046 33.2753 141.664 33.4056 142.478 35.3591 142.837 36.2382 142.869 37.0196 142.609 39.2988 141.86 45.8106 142.413 56.4574 143.878 63.6529 144.269 65.4437 144.562 67.0065 144.562 67.1693 144.562 67.2995 145.441 66.9739 146.483 66.4204 149.023 65.1506 154.134 63.132 157.488 62.0575 160.581 61.1133 166.963 59.583 167.972 59.583 168.526 59.583 168.623 59.4202 168.493 58.8342 167.256 53.2666 166.637 46.885 166.637 39.2011L166.637 32.6242 158.921 32.4288C154.688 32.2986 150.748 32.0381 150.195 31.8753 148.632 31.3869 147.688 29.8892 147.916 28.2938 148.111 26.7635 148.599 26.0798 149.934 25.5263 150.846 25.1681 159.214 25.2984 169.567 25.8193 173.312 26.0147 174.321 27.4147 173.865 31.5823 173.149 37.6057 173.605 47.6339 174.875 54.8294 175.2 56.783 175.493 58.4435 175.493 58.5086 175.493 58.5737 175.623 58.6063 175.754 58.6063 175.916 58.6063 176.568 57.4667 177.219 56.0992 181.972 45.8431 183.991 34.8382 183.503 21.5215 183.177 13.2841 183.21 13.0236 183.893 12.0468 185.131 10.3212 185.945 10.191 196.657 9.86539 202.582 9.67003 207.01 9.67003 207.629 9.83283 210.038 10.484 211.178 13.0236 210.136 15.2051 209.094 17.2563 208.182 17.5819 202.322 17.7447 199.457 17.8424 195.94 18.0051 194.475 18.1028L191.773 18.2982 191.773 21.8146 191.773 25.3635 193.173 25.5263C193.922 25.624 197.601 25.7868 201.345 25.8844 208.638 26.0798 210.071 26.3728 210.559 27.7729 210.69 28.1636 210.787 33.1125 210.787 38.7453 210.82 49.0339 211.21 53.5922 212.415 57.7597L212.773 59.0621 214.304 55.7736C219.22 45.1919 221.564 30.6381 220.457 17.8098 220.067 13.6422 220.099 13.2515 220.653 12.3073 221.988 10.0282 221.825 10.0607 233.579 9.67003 243.216 9.34444 244.29 9.377 245.3 9.86539 246.798 10.5817 247.579 12.0794 247.351 13.9027 247.058 16.6051 245.332 17.5819 240.904 17.5819 239.537 17.5819 236.248 17.6796 233.579 17.7772L228.727 18.0051 228.695 24.5495C228.695 28.1636 228.499 32.7218 228.271 34.6754 227.197 44.4105 224.299 54.3736 220.522 61.6343 219.871 62.8389 219.415 63.8808 219.48 63.9459 219.546 64.0111 221.076 64.6622 222.867 65.4111 227.262 67.267 231.658 69.6438 235.402 72.1834L238.495 74.2997 239.244 73.3555C242.174 69.774 245.528 63.6855 247.579 58.2156 250.932 49.1967 252.56 36.108 251.681 25.2984 251.323 20.8052 251.323 20.4471 251.909 19.4377 253.016 17.4842 253.7 17.354 264.965 16.9633 275.938 16.6051 276.491 16.6377 277.859 18.2005 278.217 18.5912 278.543 19.5354 278.64 20.4796 278.77 21.9448 278.673 22.1727 277.663 23.2797 276.556 24.4844 276.459 24.517 273.626 24.7774 272.031 24.9077 268.84 25.0379 266.496 25.0379 264.184 25.0705 261.71 25.1681 261.058 25.2658L259.821 25.4937 260.049 28.7822C260.31 33.08 259.658 41.9686 258.682 47.699 256.695 59.1923 252.593 69.188 246.635 76.9696L244.616 79.6394 245.951 81.1046C246.7 81.886 247.644 82.9604 248.035 83.5139L248.784 84.4581 249.663 83.3511C252.756 79.2813 259.854 72.9322 265.421 69.2531 291.501 52.0945 331.256 47.5036 364.596 57.8249 392.695 66.5181 411.416 83.6767 415.974 104.873 416.821 108.715 416.821 117.245 415.974 121.087 412.393 137.757 399.955 152.051 380.876 161.428 361.438 171 338.744 174.744 314.781 172.368 283.589 169.307 256.728 154.916 245.17 135.055L243.737 132.613 240.644 134.957C236.737 137.888 234.588 139.157 229.509 141.632 205.35 153.288 169.73 151.66 145.962 137.79 144.692 137.041 143.553 136.422 143.488 136.422 143.39 136.422 142.967 136.976 142.576 137.66 140.329 141.404 134.827 147.395 130.464 150.846 127.827 152.962 123.138 155.828 119.622 157.456 116.854 158.758 110.18 161.167 109.301 161.167 109.105 161.167 108.715 161.297 108.454 161.46 108.096 161.688 108.324 162.242 109.529 164.26 115.031 173.312 122.357 179.889 132.222 184.577 140.59 188.549 149.706 190.601 161.33 191.089 166.377 191.284 166.995 191.382 167.94 192.066 169.079 192.88 169.828 194.801 169.502 196.136 169.405 196.591 168.851 197.471 168.363 198.057L167.386 199.099 162.079 199.033C144.302 198.871 128.055 193.531 116.106 183.926 110.668 179.563 105.068 172.791 101.519 166.344L99.7934 163.218 93.1188 163.218C85.6303 163.251 81.2348 162.73 74.9509 161.167 72.7369 160.614 71.1089 160.321 71.0438 160.516 70.6531 161.59 67.8856 166.995 66.7135 168.851 60.6575 178.554 52.5177 186.01 42.3919 191.089 32.6893 196.005 21.4238 198.643 8.40023 199.099 5.17689 199.196 3.12567 199.131 2.60472 198.936ZM204.927 55.676C203.95 50.0107 203.364 41.5453 203.592 36.7592L203.787 32.9823 200.336 32.7544C194.67 32.4288 191.447 32.4939 191.447 32.9823 191.447 34.187 190.666 39.3964 189.949 42.9779 189.07 47.4385 187.735 52.0619 186.303 55.6108L185.359 57.89 188.81 58.0853C193.303 58.3458 200.792 59.1923 203.494 59.7133 204.666 59.9412 205.643 60.104 205.643 60.104 205.675 60.0714 205.35 58.0853 204.927 55.676Z" stroke="#C00000" stroke-width="0.688852" fill="#C00000" transform="matrix(1 0 0 -1.00299 3076.12 1296)"/></g></g></g><path d="M1.24446e-05-3.4375 76.7708-3.43722 76.7708 3.43778-1.24446e-05 3.4375ZM72.1876-13.7497 99.6875 0.000360892 72.1874 13.7503Z" fill="#C00000" transform="matrix(-1 0 0 1 3211.19 1071.5)"/><path d="M899 1312 899 1363.56" stroke="#000000" stroke-width="10.3125" stroke-miterlimit="8" fill="none" fill-rule="evenodd"/><path d="M390 1312 390.001 1363.56" stroke="#000000" stroke-width="10.3125" stroke-miterlimit="8" fill="none" fill-rule="evenodd"/><text font-family="Consolas,Consolas_MSFontService,sans-serif" font-weight="400" font-size="83" transform="matrix(1 0 0 1 852.951 1441)">10<tspan font-size="83" x="-485.369" y="0">9</tspan></text><path d="M127 2014.12 4111.75 2014.13 4111.75 2027.88 127 2027.87ZM4104.88 2000.38 4146.12 2021 4104.88 2041.63Z"/><path d="M1914 1996 1914 2047.56" stroke="#000000" stroke-width="10.3125" stroke-miterlimit="8" fill="none" fill-rule="evenodd"/><path d="M1405 1996 1405 2047.56" stroke="#000000" stroke-width="10.3125" stroke-miterlimit="8" fill="none" fill-rule="evenodd"/><path d="M3285 1996 3285 2047.56" stroke="#000000" stroke-width="10.3125" stroke-miterlimit="8" fill="none" fill-rule="evenodd"/><path d="M2777 1996 2777 2047.56" stroke="#000000" stroke-width="10.3125" stroke-miterlimit="8" fill="none" fill-rule="evenodd"/><path d="M3793 1994 3793 2045.56" stroke="#000000" stroke-width="10.3125" stroke-miterlimit="8" fill="none" fill-rule="evenodd"/><text font-family="Consolas,Consolas_MSFontService,sans-serif" font-weight="400" font-size="83" transform="matrix(1 0 0 1 3748.08 2125)">22<tspan font-size="83" x="-508.517" y="0">21</tspan><tspan font-size="83" x="-1017.03" y="2">20</tspan><tspan font-size="83" x="-1879.81" y="0">12</tspan><tspan font-size="83" x="-2387.81" y="0">11</tspan><tspan font-size="83" x="-1458.22" y="2">...</tspan></text><g clip-path="url(#clip25)"><g clip-path="url(#clip26)"><g clip-path="url(#clip27)"><path d="M2.61097 199.413C0.391645 198.434-0.587468 195.921 0.489557 193.864 1.4034 192.135 2.93734 191.678 9.13839 191.449 31.4622 190.666 48.5967 182.148 58.91 166.776 60.9335 163.708 63.9035 158.127 63.6424 157.866 63.5445 157.768 61.7168 156.821 59.5301 155.712 51.8604 151.828 45.8552 147.357 39.6541 140.927 27.3173 128.166 20.953 112.337 21.6384 96.1163 21.9321 89.3604 22.9765 84.269 25.3264 78.3944 31.5601 62.8265 45.7246 50.7834 63.1528 46.2468 69.3539 44.6149 72.4218 44.2559 79.9609 44.2559 87.8918 44.2233 91.286 44.6476 98.4988 46.5405 112.729 50.2285 126.371 58.6489 135.477 69.3865 137.533 71.8017 137.892 72.0954 138.316 71.7038 138.708 71.2795 138.708 70.9531 138.251 69.1581 136.521 62.2063 135.77 55.4505 135.77 46.9648L135.77 40.2416 133.094 40.0457C131.593 39.9152 128.851 39.8173 126.958 39.7846 125.065 39.7846 122.454 39.6541 121.116 39.5236 118.962 39.3277 118.636 39.1972 117.755 38.2181 116.906 37.2716 116.776 36.9452 116.939 35.7703 117.069 34.8238 117.428 34.1711 118.146 33.551 119.321 32.4739 118.734 32.5066 131.495 32.9635 141.384 33.3551 142.004 33.4857 142.82 35.4439 143.179 36.3251 143.212 37.1084 142.951 39.393 142.2 45.9204 142.755 56.5928 144.223 63.8056 144.615 65.6006 144.909 67.1672 144.909 67.3304 144.909 67.4609 145.79 67.1346 146.834 66.5797 149.38 65.3069 154.504 63.2834 157.866 62.2063 160.966 61.2599 167.363 59.7259 168.375 59.7259 168.93 59.7259 169.028 59.5627 168.897 58.9753 167.657 53.3943 167.037 46.9975 167.037 39.2951L167.037 32.7024 159.302 32.5066C155.059 32.376 151.11 32.1149 150.555 31.9517 148.988 31.4622 148.042 29.9609 148.27 28.3617 148.466 26.8277 148.956 26.1423 150.294 25.5875 151.208 25.2285 159.596 25.359 169.974 25.8812 173.727 26.0771 174.739 27.4805 174.282 31.658 173.564 37.6959 174.021 47.7481 175.294 54.9609 175.62 56.9191 175.914 58.5836 175.914 58.6489 175.914 58.7142 176.045 58.7468 176.175 58.7468 176.338 58.7468 176.991 57.6045 177.644 56.2338 182.409 45.9531 184.432 34.9217 183.943 21.5731 183.616 13.3159 183.649 13.0548 184.334 12.0757 185.575 10.346 186.391 10.2154 197.128 9.88905 203.068 9.69322 207.507 9.69322 208.127 9.85641 210.542 10.5092 211.684 13.0548 210.64 15.2415 209.596 17.2977 208.682 17.624 202.807 17.7872 199.935 17.8851 196.41 18.0483 194.942 18.1462L192.233 18.3421 192.233 21.8669 192.233 25.4243 193.636 25.5875C194.387 25.6854 198.075 25.8486 201.828 25.9465 209.139 26.1423 210.575 26.4361 211.064 27.8395 211.195 28.2311 211.293 33.192 211.293 38.8382 211.325 49.1515 211.717 53.7207 212.925 57.8983L213.284 59.2037 214.818 55.9074C219.746 45.3003 222.096 30.7115 220.986 17.8525 220.594 13.675 220.627 13.2833 221.182 12.3368 222.52 10.0522 222.357 10.0849 234.139 9.69322 243.799 9.36685 244.876 9.39949 245.888 9.88905 247.389 10.6071 248.173 12.1084 247.944 13.9361 247.65 16.6449 245.921 17.624 241.482 17.624 240.111 17.624 236.815 17.722 234.139 17.8199L229.276 18.0483 229.243 24.6084C229.243 28.2311 229.047 32.8003 228.819 34.7585 227.742 44.517 224.837 54.504 221.051 61.7821 220.398 62.9896 219.942 64.034 220.007 64.0993 220.072 64.1646 221.606 64.8173 223.401 65.568 227.807 67.4283 232.213 69.8108 235.966 72.3565L239.067 74.4779 239.818 73.5314C242.755 69.9413 246.117 63.8382 248.173 58.3552 251.534 49.3147 253.166 36.1946 252.285 25.359 251.926 20.8551 251.926 20.4961 252.513 19.4844 253.623 17.5261 254.308 17.3956 265.601 17.0039 276.6 16.6449 277.154 16.6776 278.525 18.2442 278.884 18.6358 279.211 19.5823 279.308 20.5287 279.439 21.9974 279.341 22.2259 278.329 23.3355 277.22 24.5431 277.122 24.5758 274.282 24.8368 272.683 24.9674 269.485 25.0979 267.135 25.0979 264.818 25.1306 262.337 25.2285 261.684 25.3264L260.444 25.5549 260.673 28.8512C260.934 33.1593 260.281 42.0692 259.302 47.8134 257.311 59.3343 253.199 69.3539 247.226 77.1542L245.203 79.8304 246.541 81.2991C247.291 82.0824 248.238 83.1594 248.63 83.7142L249.38 84.6607 250.261 83.551C253.362 79.4714 260.477 73.1071 266.058 69.4192 292.2 52.2194 332.05 47.6176 365.47 57.9635 393.636 66.6776 412.403 83.8774 416.972 105.124 417.82 108.975 417.82 117.526 416.972 121.377 413.382 138.088 400.914 152.415 381.789 161.815 362.305 171.41 339.557 175.163 315.536 172.781 284.269 169.713 257.344 155.287 245.758 135.379L244.321 132.931 241.221 135.281C237.304 138.218 235.15 139.491 230.059 141.971 205.842 153.656 170.137 152.024 146.312 138.12 145.039 137.37 143.897 136.75 143.832 136.75 143.734 136.75 143.31 137.304 142.918 137.99 140.666 141.743 135.15 147.748 130.777 151.208 128.133 153.329 123.434 156.201 119.909 157.833 117.135 159.139 110.444 161.554 109.563 161.554 109.367 161.554 108.975 161.684 108.714 161.847 108.355 162.076 108.584 162.631 109.791 164.654 115.307 173.727 122.65 180.32 132.539 185.02 140.927 189.002 150.065 191.058 161.717 191.547 166.776 191.743 167.396 191.841 168.342 192.526 169.485 193.342 170.235 195.268 169.909 196.606 169.811 197.063 169.256 197.944 168.767 198.532L167.787 199.576 162.468 199.511C144.648 199.348 128.362 193.995 116.384 184.367 110.934 179.994 105.32 173.205 101.763 166.743L100.033 163.61 93.3422 163.61C85.8356 163.643 81.4296 163.12 75.1306 161.554 72.9113 160.999 71.2795 160.705 71.2142 160.901 70.8225 161.978 68.0484 167.396 66.8735 169.256 60.803 178.982 52.6437 186.456 42.4935 191.547 32.7677 196.475 21.4752 199.119 8.42038 199.576 5.1893 199.674 3.13316 199.609 2.61097 199.413ZM205.418 55.8095C204.439 50.1306 203.851 41.645 204.08 36.8473L204.276 33.0614 200.816 32.8329C195.137 32.5066 191.906 32.5718 191.906 33.0614 191.906 34.269 191.123 39.4909 190.405 43.081 189.524 47.5523 188.186 52.1868 186.75 55.7442L185.803 58.0288 189.263 58.2246C193.767 58.4857 201.273 59.3343 203.982 59.8565 205.157 60.0849 206.136 60.2481 206.136 60.2481 206.169 60.2155 205.842 58.2246 205.418 55.8095Z" stroke="#002060" stroke-width="0.690504" fill="#002060" transform="matrix(-1 0 0 -1.00059 2121.88 1979)"/></g></g></g><path d="M1987.5 1751.06 2064.27 1751.06 2064.27 1757.94 1987.5 1757.94ZM2059.69 1740.75 2087.19 1754.5 2059.69 1768.25Z" fill="#002060"/><g clip-path="url(#clip28)"><g clip-path="url(#clip29)"><g clip-path="url(#clip30)"><path d="M2.61097 199.413C0.391645 198.434-0.587468 195.921 0.489557 193.864 1.4034 192.135 2.93734 191.678 9.13839 191.449 31.4622 190.666 48.5967 182.148 58.91 166.776 60.9335 163.708 63.9035 158.127 63.6424 157.866 63.5445 157.768 61.7168 156.821 59.5301 155.712 51.8604 151.828 45.8552 147.357 39.6541 140.927 27.3173 128.166 20.953 112.337 21.6384 96.1163 21.9321 89.3604 22.9765 84.269 25.3264 78.3944 31.5601 62.8265 45.7246 50.7834 63.1528 46.2468 69.3539 44.6149 72.4218 44.2559 79.9609 44.2559 87.8918 44.2233 91.286 44.6476 98.4988 46.5405 112.729 50.2285 126.371 58.6489 135.477 69.3865 137.533 71.8017 137.892 72.0954 138.316 71.7038 138.708 71.2795 138.708 70.9531 138.251 69.1581 136.521 62.2063 135.77 55.4505 135.77 46.9648L135.77 40.2416 133.094 40.0457C131.593 39.9152 128.851 39.8173 126.958 39.7846 125.065 39.7846 122.454 39.6541 121.116 39.5236 118.962 39.3277 118.636 39.1972 117.755 38.2181 116.906 37.2716 116.776 36.9452 116.939 35.7703 117.069 34.8238 117.428 34.1711 118.146 33.551 119.321 32.4739 118.734 32.5066 131.495 32.9635 141.384 33.3551 142.004 33.4857 142.82 35.4439 143.179 36.3251 143.212 37.1084 142.951 39.393 142.2 45.9204 142.755 56.5928 144.223 63.8056 144.615 65.6006 144.909 67.1672 144.909 67.3304 144.909 67.4609 145.79 67.1346 146.834 66.5797 149.38 65.3069 154.504 63.2834 157.866 62.2063 160.966 61.2599 167.363 59.7259 168.375 59.7259 168.93 59.7259 169.028 59.5627 168.897 58.9753 167.657 53.3943 167.037 46.9975 167.037 39.2951L167.037 32.7024 159.302 32.5066C155.059 32.376 151.11 32.1149 150.555 31.9517 148.988 31.4622 148.042 29.9609 148.27 28.3617 148.466 26.8277 148.956 26.1423 150.294 25.5875 151.208 25.2285 159.596 25.359 169.974 25.8812 173.727 26.0771 174.739 27.4805 174.282 31.658 173.564 37.6959 174.021 47.7481 175.294 54.9609 175.62 56.9191 175.914 58.5836 175.914 58.6489 175.914 58.7142 176.045 58.7468 176.175 58.7468 176.338 58.7468 176.991 57.6045 177.644 56.2338 182.409 45.9531 184.432 34.9217 183.943 21.5731 183.616 13.3159 183.649 13.0548 184.334 12.0757 185.575 10.346 186.391 10.2154 197.128 9.88905 203.068 9.69322 207.507 9.69322 208.127 9.85641 210.542 10.5092 211.684 13.0548 210.64 15.2415 209.596 17.2977 208.682 17.624 202.807 17.7872 199.935 17.8851 196.41 18.0483 194.942 18.1462L192.233 18.3421 192.233 21.8669 192.233 25.4243 193.636 25.5875C194.387 25.6854 198.075 25.8486 201.828 25.9465 209.139 26.1423 210.575 26.4361 211.064 27.8395 211.195 28.2311 211.293 33.192 211.293 38.8382 211.325 49.1515 211.717 53.7207 212.925 57.8983L213.284 59.2037 214.818 55.9074C219.746 45.3003 222.096 30.7115 220.986 17.8525 220.594 13.675 220.627 13.2833 221.182 12.3368 222.52 10.0522 222.357 10.0849 234.139 9.69322 243.799 9.36685 244.876 9.39949 245.888 9.88905 247.389 10.6071 248.173 12.1084 247.944 13.9361 247.65 16.6449 245.921 17.624 241.482 17.624 240.111 17.624 236.815 17.722 234.139 17.8199L229.276 18.0483 229.243 24.6084C229.243 28.2311 229.047 32.8003 228.819 34.7585 227.742 44.517 224.837 54.504 221.051 61.7821 220.398 62.9896 219.942 64.034 220.007 64.0993 220.072 64.1646 221.606 64.8173 223.401 65.568 227.807 67.4283 232.213 69.8108 235.966 72.3565L239.067 74.4779 239.818 73.5314C242.755 69.9413 246.117 63.8382 248.173 58.3552 251.534 49.3147 253.166 36.1946 252.285 25.359 251.926 20.8551 251.926 20.4961 252.513 19.4844 253.623 17.5261 254.308 17.3956 265.601 17.0039 276.6 16.6449 277.154 16.6776 278.525 18.2442 278.884 18.6358 279.211 19.5823 279.308 20.5287 279.439 21.9974 279.341 22.2259 278.329 23.3355 277.22 24.5431 277.122 24.5758 274.282 24.8368 272.683 24.9674 269.485 25.0979 267.135 25.0979 264.818 25.1306 262.337 25.2285 261.684 25.3264L260.444 25.5549 260.673 28.8512C260.934 33.1593 260.281 42.0692 259.302 47.8134 257.311 59.3343 253.199 69.3539 247.226 77.1542L245.203 79.8304 246.541 81.2991C247.291 82.0824 248.238 83.1594 248.63 83.7142L249.38 84.6607 250.261 83.551C253.362 79.4714 260.477 73.1071 266.058 69.4192 292.2 52.2194 332.05 47.6176 365.47 57.9635 393.636 66.6776 412.403 83.8774 416.972 105.124 417.82 108.975 417.82 117.526 416.972 121.377 413.382 138.088 400.914 152.415 381.789 161.815 362.305 171.41 339.557 175.163 315.536 172.781 284.269 169.713 257.344 155.287 245.758 135.379L244.321 132.931 241.221 135.281C237.304 138.218 235.15 139.491 230.059 141.971 205.842 153.656 170.137 152.024 146.312 138.12 145.039 137.37 143.897 136.75 143.832 136.75 143.734 136.75 143.31 137.304 142.918 137.99 140.666 141.743 135.15 147.748 130.777 151.208 128.133 153.329 123.434 156.201 119.909 157.833 117.135 159.139 110.444 161.554 109.563 161.554 109.367 161.554 108.975 161.684 108.714 161.847 108.355 162.076 108.584 162.631 109.791 164.654 115.307 173.727 122.65 180.32 132.539 185.02 140.927 189.002 150.065 191.058 161.717 191.547 166.776 191.743 167.396 191.841 168.342 192.526 169.485 193.342 170.235 195.268 169.909 196.606 169.811 197.063 169.256 197.944 168.767 198.532L167.787 199.576 162.468 199.511C144.648 199.348 128.362 193.995 116.384 184.367 110.934 179.994 105.32 173.205 101.763 166.743L100.033 163.61 93.3422 163.61C85.8356 163.643 81.4296 163.12 75.1306 161.554 72.9113 160.999 71.2795 160.705 71.2142 160.901 70.8225 161.978 68.0484 167.396 66.8735 169.256 60.803 178.982 52.6437 186.456 42.4935 191.547 32.7677 196.475 21.4752 199.119 8.42038 199.576 5.1893 199.674 3.13316 199.609 2.61097 199.413ZM205.418 55.8095C204.439 50.1306 203.851 41.645 204.08 36.8473L204.276 33.0614 200.816 32.8329C195.137 32.5066 191.906 32.5718 191.906 33.0614 191.906 34.269 191.123 39.4909 190.405 43.081 189.524 47.5523 188.186 52.1868 186.75 55.7442L185.803 58.0288 189.263 58.2246C193.767 58.4857 201.273 59.3343 203.982 59.8565 205.157 60.0849 206.136 60.2481 206.136 60.2481 206.169 60.2155 205.842 58.2246 205.418 55.8095Z" stroke="#0070C0" stroke-width="0.690504" fill="#0070C0" transform="matrix(1 0 0 -1.00059 178.122 1979)"/></g></g></g><path d="M1.24446e-05-3.4375 76.7708-3.43722 76.7708 3.43778-1.24446e-05 3.4375ZM72.1876-13.7497 99.6875 0.000360892 72.1874 13.7503Z" fill="#0070C0" transform="matrix(-1 0 0 1 313.187 1754.5)"/><path d="M897 1996 897 2047.56" stroke="#000000" stroke-width="10.3125" stroke-miterlimit="8" fill="none" fill-rule="evenodd"/><path d="M388 1996 388 2047.56" stroke="#000000" stroke-width="10.3125" stroke-miterlimit="8" fill="none" fill-rule="evenodd"/><text font-family="Consolas,Consolas_MSFontService,sans-serif" font-weight="400" font-size="83" transform="matrix(1 0 0 1 851.238 2125)">10<tspan font-size="83" x="-485.369" y="0">9</tspan></text><g clip-path="url(#clip31)"><g clip-path="url(#clip32)"><g clip-path="url(#clip33)"><path d="M2.61097 199.413C0.391645 198.434-0.587468 195.921 0.489557 193.864 1.4034 192.135 2.93734 191.678 9.13839 191.449 31.4622 190.666 48.5967 182.148 58.91 166.776 60.9335 163.708 63.9035 158.127 63.6424 157.866 63.5445 157.768 61.7168 156.821 59.5301 155.712 51.8604 151.828 45.8552 147.357 39.6541 140.927 27.3173 128.166 20.953 112.337 21.6384 96.1163 21.9321 89.3604 22.9765 84.269 25.3264 78.3944 31.5601 62.8265 45.7246 50.7834 63.1528 46.2468 69.3539 44.6149 72.4218 44.2559 79.9609 44.2559 87.8918 44.2233 91.286 44.6476 98.4988 46.5405 112.729 50.2285 126.371 58.6489 135.477 69.3865 137.533 71.8017 137.892 72.0954 138.316 71.7038 138.708 71.2795 138.708 70.9531 138.251 69.1581 136.521 62.2063 135.77 55.4505 135.77 46.9648L135.77 40.2416 133.094 40.0457C131.593 39.9152 128.851 39.8173 126.958 39.7846 125.065 39.7846 122.454 39.6541 121.116 39.5236 118.962 39.3277 118.636 39.1972 117.755 38.2181 116.906 37.2716 116.776 36.9452 116.939 35.7703 117.069 34.8238 117.428 34.1711 118.146 33.551 119.321 32.4739 118.734 32.5066 131.495 32.9635 141.384 33.3551 142.004 33.4857 142.82 35.4439 143.179 36.3251 143.212 37.1084 142.951 39.393 142.2 45.9204 142.755 56.5928 144.223 63.8056 144.615 65.6006 144.909 67.1672 144.909 67.3304 144.909 67.4609 145.79 67.1346 146.834 66.5797 149.38 65.3069 154.504 63.2834 157.866 62.2063 160.966 61.2599 167.363 59.7259 168.375 59.7259 168.93 59.7259 169.028 59.5627 168.897 58.9753 167.657 53.3943 167.037 46.9975 167.037 39.2951L167.037 32.7024 159.302 32.5066C155.059 32.376 151.11 32.1149 150.555 31.9517 148.988 31.4622 148.042 29.9609 148.27 28.3617 148.466 26.8277 148.956 26.1423 150.294 25.5875 151.208 25.2285 159.596 25.359 169.974 25.8812 173.727 26.0771 174.739 27.4805 174.282 31.658 173.564 37.6959 174.021 47.7481 175.294 54.9609 175.62 56.9191 175.914 58.5836 175.914 58.6489 175.914 58.7142 176.045 58.7468 176.175 58.7468 176.338 58.7468 176.991 57.6045 177.644 56.2338 182.409 45.9531 184.432 34.9217 183.943 21.5731 183.616 13.3159 183.649 13.0548 184.334 12.0757 185.575 10.346 186.391 10.2154 197.128 9.88905 203.068 9.69322 207.507 9.69322 208.127 9.85641 210.542 10.5092 211.684 13.0548 210.64 15.2415 209.596 17.2977 208.682 17.624 202.807 17.7872 199.935 17.8851 196.41 18.0483 194.942 18.1462L192.233 18.3421 192.233 21.8669 192.233 25.4243 193.636 25.5875C194.387 25.6854 198.075 25.8486 201.828 25.9465 209.139 26.1423 210.575 26.4361 211.064 27.8395 211.195 28.2311 211.293 33.192 211.293 38.8382 211.325 49.1515 211.717 53.7207 212.925 57.8983L213.284 59.2037 214.818 55.9074C219.746 45.3003 222.096 30.7115 220.986 17.8525 220.594 13.675 220.627 13.2833 221.182 12.3368 222.52 10.0522 222.357 10.0849 234.139 9.69322 243.799 9.36685 244.876 9.39949 245.888 9.88905 247.389 10.6071 248.173 12.1084 247.944 13.9361 247.65 16.6449 245.921 17.624 241.482 17.624 240.111 17.624 236.815 17.722 234.139 17.8199L229.276 18.0483 229.243 24.6084C229.243 28.2311 229.047 32.8003 228.819 34.7585 227.742 44.517 224.837 54.504 221.051 61.7821 220.398 62.9896 219.942 64.034 220.007 64.0993 220.072 64.1646 221.606 64.8173 223.401 65.568 227.807 67.4283 232.213 69.8108 235.966 72.3565L239.067 74.4779 239.818 73.5314C242.755 69.9413 246.117 63.8382 248.173 58.3552 251.534 49.3147 253.166 36.1946 252.285 25.359 251.926 20.8551 251.926 20.4961 252.513 19.4844 253.623 17.5261 254.308 17.3956 265.601 17.0039 276.6 16.6449 277.154 16.6776 278.525 18.2442 278.884 18.6358 279.211 19.5823 279.308 20.5287 279.439 21.9974 279.341 22.2259 278.329 23.3355 277.22 24.5431 277.122 24.5758 274.282 24.8368 272.683 24.9674 269.485 25.0979 267.135 25.0979 264.818 25.1306 262.337 25.2285 261.684 25.3264L260.444 25.5549 260.673 28.8512C260.934 33.1593 260.281 42.0692 259.302 47.8134 257.311 59.3343 253.199 69.3539 247.226 77.1542L245.203 79.8304 246.541 81.2991C247.291 82.0824 248.238 83.1594 248.63 83.7142L249.38 84.6607 250.261 83.551C253.362 79.4714 260.477 73.1071 266.058 69.4192 292.2 52.2194 332.05 47.6176 365.47 57.9635 393.636 66.6776 412.403 83.8774 416.972 105.124 417.82 108.975 417.82 117.526 416.972 121.377 413.382 138.088 400.914 152.415 381.789 161.815 362.305 171.41 339.557 175.163 315.536 172.781 284.269 169.713 257.344 155.287 245.758 135.379L244.321 132.931 241.221 135.281C237.304 138.218 235.15 139.491 230.059 141.971 205.842 153.656 170.137 152.024 146.312 138.12 145.039 137.37 143.897 136.75 143.832 136.75 143.734 136.75 143.31 137.304 142.918 137.99 140.666 141.743 135.15 147.748 130.777 151.208 128.133 153.329 123.434 156.201 119.909 157.833 117.135 159.139 110.444 161.554 109.563 161.554 109.367 161.554 108.975 161.684 108.714 161.847 108.355 162.076 108.584 162.631 109.791 164.654 115.307 173.727 122.65 180.32 132.539 185.02 140.927 189.002 150.065 191.058 161.717 191.547 166.776 191.743 167.396 191.841 168.342 192.526 169.485 193.342 170.235 195.268 169.909 196.606 169.811 197.063 169.256 197.944 168.767 198.532L167.787 199.576 162.468 199.511C144.648 199.348 128.362 193.995 116.384 184.367 110.934 179.994 105.32 173.205 101.763 166.743L100.033 163.61 93.3422 163.61C85.8356 163.643 81.4296 163.12 75.1306 161.554 72.9113 160.999 71.2795 160.705 71.2142 160.901 70.8225 161.978 68.0484 167.396 66.8735 169.256 60.803 178.982 52.6437 186.456 42.4935 191.547 32.7677 196.475 21.4752 199.119 8.42038 199.576 5.1893 199.674 3.13316 199.609 2.61097 199.413ZM205.418 55.8095C204.439 50.1306 203.851 41.645 204.08 36.8473L204.276 33.0614 200.816 32.8329C195.137 32.5066 191.906 32.5718 191.906 33.0614 191.906 34.269 191.123 39.4909 190.405 43.081 189.524 47.5523 188.186 52.1868 186.75 55.7442L185.803 58.0288 189.263 58.2246C193.767 58.4857 201.273 59.3343 203.982 59.8565 205.157 60.0849 206.136 60.2481 206.136 60.2481 206.169 60.2155 205.842 58.2246 205.418 55.8095Z" stroke="#C55A11" stroke-width="0.690504" fill="#C55A11" transform="matrix(-1 0 0 -1.00059 4001.88 1980)"/></g></g></g><path d="M3867.5 1752.06 3944.27 1752.06 3944.27 1758.94 3867.5 1758.94ZM3939.69 1741.75 3967.19 1755.5 3939.69 1769.25Z" fill="#C55A11"/><g clip-path="url(#clip34)"><g clip-path="url(#clip35)"><g clip-path="url(#clip36)"><path d="M2.60472 198.936C0.390708 197.959-0.586063 195.452 0.488386 193.401 1.40004 191.675 2.93031 191.219 9.11653 190.991 31.3869 190.21 48.4804 181.712 58.7691 166.377 60.7877 163.316 63.7506 157.749 63.4901 157.488 63.3924 157.39 61.5691 156.446 59.3877 155.339 51.7363 151.465 45.7454 147.004 39.5592 140.59 27.2519 127.859 20.9029 112.068 21.5866 95.8864 21.8797 89.1466 22.9216 84.0674 25.2658 78.2068 31.4846 62.6761 45.6152 50.6619 63.0017 46.1362 69.188 44.5082 72.2485 44.1501 79.7696 44.1501 87.6815 44.1175 91.0676 44.5408 98.2632 46.4292 112.459 50.1084 126.069 58.5086 135.153 69.2205 137.204 71.6299 137.562 71.9229 137.985 71.5322 138.376 71.1089 138.376 70.7833 137.92 68.9926 136.194 62.0575 135.446 55.3178 135.446 46.8525L135.446 40.1453 132.776 39.9499C131.278 39.8197 128.543 39.722 126.655 39.6895 124.766 39.6895 122.162 39.5592 120.827 39.429 118.678 39.2336 118.352 39.1034 117.473 38.1266 116.626 37.1824 116.496 36.8568 116.659 35.6847 116.789 34.7405 117.147 34.0893 117.864 33.4707 119.036 32.3962 118.45 32.4288 131.18 32.8846 141.046 33.2753 141.664 33.4056 142.478 35.3591 142.837 36.2382 142.869 37.0196 142.609 39.2988 141.86 45.8106 142.413 56.4574 143.878 63.6529 144.269 65.4437 144.562 67.0065 144.562 67.1693 144.562 67.2995 145.441 66.9739 146.483 66.4204 149.023 65.1506 154.134 63.132 157.488 62.0575 160.581 61.1133 166.963 59.583 167.972 59.583 168.526 59.583 168.623 59.4202 168.493 58.8342 167.256 53.2666 166.637 46.885 166.637 39.2011L166.637 32.6242 158.921 32.4288C154.688 32.2986 150.748 32.0381 150.195 31.8753 148.632 31.3869 147.688 29.8892 147.916 28.2938 148.111 26.7635 148.599 26.0798 149.934 25.5263 150.846 25.1681 159.214 25.2984 169.567 25.8193 173.312 26.0147 174.321 27.4147 173.865 31.5823 173.149 37.6057 173.605 47.6339 174.875 54.8294 175.2 56.783 175.493 58.4435 175.493 58.5086 175.493 58.5737 175.623 58.6063 175.754 58.6063 175.916 58.6063 176.568 57.4667 177.219 56.0992 181.972 45.8431 183.991 34.8382 183.503 21.5215 183.177 13.2841 183.21 13.0236 183.893 12.0468 185.131 10.3212 185.945 10.191 196.657 9.86539 202.582 9.67003 207.01 9.67003 207.629 9.83283 210.038 10.484 211.178 13.0236 210.136 15.2051 209.094 17.2563 208.182 17.5819 202.322 17.7447 199.457 17.8424 195.94 18.0051 194.475 18.1028L191.773 18.2982 191.773 21.8146 191.773 25.3635 193.173 25.5263C193.922 25.624 197.601 25.7868 201.345 25.8844 208.638 26.0798 210.071 26.3728 210.559 27.7729 210.69 28.1636 210.787 33.1125 210.787 38.7453 210.82 49.0339 211.21 53.5922 212.415 57.7597L212.773 59.0621 214.304 55.7736C219.22 45.1919 221.564 30.6381 220.457 17.8098 220.067 13.6422 220.099 13.2515 220.653 12.3073 221.988 10.0282 221.825 10.0607 233.579 9.67003 243.216 9.34444 244.29 9.377 245.3 9.86539 246.798 10.5817 247.579 12.0794 247.351 13.9027 247.058 16.6051 245.332 17.5819 240.904 17.5819 239.537 17.5819 236.248 17.6796 233.579 17.7772L228.727 18.0051 228.695 24.5495C228.695 28.1636 228.499 32.7218 228.271 34.6754 227.197 44.4105 224.299 54.3736 220.522 61.6343 219.871 62.8389 219.415 63.8808 219.48 63.9459 219.546 64.0111 221.076 64.6622 222.867 65.4111 227.262 67.267 231.658 69.6438 235.402 72.1834L238.495 74.2997 239.244 73.3555C242.174 69.774 245.528 63.6855 247.579 58.2156 250.932 49.1967 252.56 36.108 251.681 25.2984 251.323 20.8052 251.323 20.4471 251.909 19.4377 253.016 17.4842 253.7 17.354 264.965 16.9633 275.938 16.6051 276.491 16.6377 277.859 18.2005 278.217 18.5912 278.543 19.5354 278.64 20.4796 278.77 21.9448 278.673 22.1727 277.663 23.2797 276.556 24.4844 276.459 24.517 273.626 24.7774 272.031 24.9077 268.84 25.0379 266.496 25.0379 264.184 25.0705 261.71 25.1681 261.058 25.2658L259.821 25.4937 260.049 28.7822C260.31 33.08 259.658 41.9686 258.682 47.699 256.695 59.1923 252.593 69.188 246.635 76.9696L244.616 79.6394 245.951 81.1046C246.7 81.886 247.644 82.9604 248.035 83.5139L248.784 84.4581 249.663 83.3511C252.756 79.2813 259.854 72.9322 265.421 69.2531 291.501 52.0945 331.256 47.5036 364.596 57.8249 392.695 66.5181 411.416 83.6767 415.974 104.873 416.821 108.715 416.821 117.245 415.974 121.087 412.393 137.757 399.955 152.051 380.876 161.428 361.438 171 338.744 174.744 314.781 172.368 283.589 169.307 256.728 154.916 245.17 135.055L243.737 132.613 240.644 134.957C236.737 137.888 234.588 139.157 229.509 141.632 205.35 153.288 169.73 151.66 145.962 137.79 144.692 137.041 143.553 136.422 143.488 136.422 143.39 136.422 142.967 136.976 142.576 137.66 140.329 141.404 134.827 147.395 130.464 150.846 127.827 152.962 123.138 155.828 119.622 157.456 116.854 158.758 110.18 161.167 109.301 161.167 109.105 161.167 108.715 161.297 108.454 161.46 108.096 161.688 108.324 162.242 109.529 164.26 115.031 173.312 122.357 179.889 132.222 184.577 140.59 188.549 149.706 190.601 161.33 191.089 166.377 191.284 166.995 191.382 167.94 192.066 169.079 192.88 169.828 194.801 169.502 196.136 169.405 196.591 168.851 197.471 168.363 198.057L167.386 199.099 162.079 199.033C144.302 198.871 128.055 193.531 116.106 183.926 110.668 179.563 105.068 172.791 101.519 166.344L99.7934 163.218 93.1188 163.218C85.6303 163.251 81.2348 162.73 74.9509 161.167 72.7369 160.614 71.1089 160.321 71.0438 160.516 70.6531 161.59 67.8856 166.995 66.7135 168.851 60.6575 178.554 52.5177 186.01 42.3919 191.089 32.6893 196.005 21.4238 198.643 8.40023 199.099 5.17689 199.196 3.12567 199.131 2.60472 198.936ZM204.927 55.676C203.95 50.0107 203.364 41.5453 203.592 36.7592L203.787 32.9823 200.336 32.7544C194.67 32.4288 191.447 32.4939 191.447 32.9823 191.447 34.187 190.666 39.3964 189.949 42.9779 189.07 47.4385 187.735 52.0619 186.303 55.6108L185.359 57.89 188.81 58.0853C193.303 58.3458 200.792 59.1923 203.494 59.7133 204.666 59.9412 205.643 60.104 205.643 60.104 205.675 60.0714 205.35 58.0853 204.927 55.676Z" stroke="#C00000" stroke-width="0.688852" fill="#C00000" transform="matrix(1 0 0 -1.00299 2568.12 1980)"/></g></g></g><path d="M1.24446e-05-3.4375 76.7708-3.43722 76.7708 3.43778-1.24446e-05 3.4375ZM72.1876-13.7497 99.6875 0.000360892 72.1874 13.7503Z" fill="#C00000" transform="matrix(-1 0 0 1 2703.19 1755.5)"/></g></svg>